<svg xmlns="http://www.w3.org/2000/svg" width="24.5" height="22.5" viewBox="0 0 24.5 22.5">
  <g id="Group_2" data-name="Group 2" transform="translate(-818.75 -60.75)">
    <g id="Group_18" data-name="Group 18" transform="translate(819 61)">
      <path id="Path" d="M9.378,0,0,6.877,1.742,2.82Z" transform="translate(13.436)" fill="#e2761b" stroke="#e2761b" stroke-linecap="round" stroke-linejoin="round" stroke-miterlimit="10" stroke-width="0.5"/>
      <path id="Path-2" data-name="Path" d="M0,0,9.293,6.942,7.636,2.82Z" transform="translate(1.186)" fill="#e4761b" stroke="#e4761b" stroke-linecap="round" stroke-linejoin="round" stroke-miterlimit="10" stroke-width="0.5"/>
      <path id="Path-3" data-name="Path" d="M2.5,0,0,3.778,5.339,5.23,6.864.084Z" transform="translate(16.948 15.942)" fill="#e4761b" stroke="#e4761b" stroke-linecap="round" stroke-linejoin="round" stroke-miterlimit="10" stroke-width="0.5"/>
      <path id="Path-4" data-name="Path" d="M0,.084,1.516,5.23,6.854,3.778,4.369,0Z" transform="translate(0.198 15.942)" fill="#e4761b" stroke="#e4761b" stroke-linecap="round" stroke-linejoin="round" stroke-miterlimit="10" stroke-width="0.5"/>
      <path id="Path-5" data-name="Path" d="M1.488,3.173,0,5.4l5.291.233L5.113,0Z" transform="translate(5.273 6.384)" fill="#e4761b" stroke="#e4761b" stroke-linecap="round" stroke-linejoin="round" stroke-miterlimit="10" stroke-width="0.5"/>
      <path id="Path-6" data-name="Path" d="M3.8,3.239.122,0,0,5.7l5.291-.233Z" transform="translate(13.436 6.319)" fill="#e4761b" stroke="#e4761b" stroke-linecap="round" stroke-linejoin="round" stroke-miterlimit="10" stroke-width="0.5"/>
      <path id="Path-7" data-name="Path" d="M0,3.657,3.192,2.122.443,0Z" transform="translate(7.052 16.063)" fill="#e4761b" stroke="#e4761b" stroke-linecap="round" stroke-linejoin="round" stroke-miterlimit="10" stroke-width="0.5"/>
      <path id="Path-8" data-name="Path" d="M0,2.122,3.192,3.657,2.749,0Z" transform="translate(13.756 16.063)" fill="#e4761b" stroke="#e4761b" stroke-linecap="round" stroke-linejoin="round" stroke-miterlimit="10" stroke-width="0.5"/>
      <path id="Path-9" data-name="Path" d="M3.192,1.536,0,0,.254,2.057l-.028.865Z" transform="translate(13.756 18.184)" fill="#d7c1b3" stroke="#d7c1b3" stroke-linecap="round" stroke-linejoin="round" stroke-miterlimit="10" stroke-width="0.5"/>
      <path id="Path-10" data-name="Path" d="M0,1.536,2.966,2.922l-.019-.865L3.192,0Z" transform="translate(7.052 18.184)" fill="#d7c1b3" stroke="#d7c1b3" stroke-linecap="round" stroke-linejoin="round" stroke-miterlimit="10" stroke-width="0.5"/>
      <path id="Path-11" data-name="Path" d="M2.655,1.619,0,.847,1.874,0Z" transform="translate(7.419 13.085)" fill="#233447" stroke="#233447" stroke-linecap="round" stroke-linejoin="round" stroke-miterlimit="10" stroke-width="0.5"/>
      <path id="Path-12" data-name="Path" d="M0,1.619.781,0,2.665.847Z" transform="translate(13.925 13.085)" fill="#233447" stroke="#233447" stroke-linecap="round" stroke-linejoin="round" stroke-miterlimit="10" stroke-width="0.5"/>
      <path id="Path-13" data-name="Path" d="M2.486,3.778,2.947,0,0,.084Z" transform="translate(4.566 15.942)" fill="#cd6116" stroke="#cd6116" stroke-linecap="round" stroke-linejoin="round" stroke-miterlimit="10" stroke-width="0.5"/>
      <path id="Path-14" data-name="Path" d="M0,0,.461,3.778,2.956.084Z" transform="translate(16.486 15.942)" fill="#cd6116" stroke="#cd6116" stroke-linecap="round" stroke-linejoin="round" stroke-miterlimit="10" stroke-width="0.5"/>
      <path id="Path-15" data-name="Path" d="M5.291,0,0,.233l.49,2.69L1.271,1.3l1.883.847Z" transform="translate(13.436 11.782)" fill="#cd6116" stroke="#cd6116" stroke-linecap="round" stroke-linejoin="round" stroke-miterlimit="10" stroke-width="0.5"/>
      <path id="Path-16" data-name="Path" d="M2.147,2.15,4.02,1.3,4.8,2.922l.49-2.69L0,0Z" transform="translate(5.273 11.782)" fill="#cd6116" stroke="#cd6116" stroke-linecap="round" stroke-linejoin="round" stroke-miterlimit="10" stroke-width="0.5"/>
      <path id="Path-17" data-name="Path" d="M0,0,2.222,4.281,2.147,2.15Z" transform="translate(5.273 11.782)" fill="#e4751f" stroke="#e4751f" stroke-linecap="round" stroke-linejoin="round" stroke-miterlimit="10" stroke-width="0.5"/>
      <path id="Path-18" data-name="Path" d="M.085,2.15,0,4.281,2.222,0Z" transform="translate(16.505 11.782)" fill="#e4751f" stroke="#e4751f" stroke-linecap="round" stroke-linejoin="round" stroke-miterlimit="10" stroke-width="0.5"/>
      <path id="Path-19" data-name="Path" d="M.49,0,0,2.69.621,5.863.753,1.684Z" transform="translate(10.075 12.014)" fill="#e4751f" stroke="#e4751f" stroke-linecap="round" stroke-linejoin="round" stroke-miterlimit="10" stroke-width="0.5"/>
      <path id="Path-20" data-name="Path" d="M.254,0,0,1.675.122,5.863.744,2.69Z" transform="translate(13.182 12.014)" fill="#e4751f" stroke="#e4751f" stroke-linecap="round" stroke-linejoin="round" stroke-miterlimit="10" stroke-width="0.5"/>
      <path id="Path-21" data-name="Path" d="M.621.772,0,3.946l.452.307L3.2,2.131,3.286,0Z" transform="translate(13.304 13.931)" fill="#f6851b" stroke="#f6851b" stroke-linecap="round" stroke-linejoin="round" stroke-miterlimit="10" stroke-width="0.5"/>
      <path id="Path-22" data-name="Path" d="M0,0,.075,2.131,2.825,4.253l.452-.307L2.655.772Z" transform="translate(7.419 13.931)" fill="#f6851b" stroke="#f6851b" stroke-linecap="round" stroke-linejoin="round" stroke-miterlimit="10" stroke-width="0.5"/>
      <path id="Path-23" data-name="Path" d="M6.93,1.387,6.958.521l-.235-.2H3.173l-.226.2.019.865L0,0,1.036.838,3.145,2.28H6.751L8.86.838,9.9,0Z" transform="translate(7.052 19.72)" fill="#c0ad9e" stroke="#c0ad9e" stroke-linecap="round" stroke-linejoin="round" stroke-miterlimit="10" stroke-width="0.5"/>
      <path id="Path-24" data-name="Path" d="M3.757.307,3.3,0H.7L.245.307,0,2.364l.226-.2h3.55l.235.2Z" transform="translate(9.999 17.877)" fill="#161616" stroke="#161616" stroke-linecap="round" stroke-linejoin="round" stroke-miterlimit="10" stroke-width="0.5"/>
      <path id="Path-25" data-name="Path" d="M9.453,7.324l.791-3.8L9.058,0,0,6.645,3.484,9.558l4.924,1.424L9.491,9.725,9.02,9.39l.753-.679L9.2,8.264,9.952,7.7Z" transform="translate(13.756)" fill="#763d16" stroke="#763d16" stroke-linecap="round" stroke-linejoin="round" stroke-miterlimit="10" stroke-width="0.5"/>
      <path id="Path-26" data-name="Path" d="M0,3.527l.8,3.8L.292,7.7l.753.568-.574.447.753.679-.471.335,1.083,1.256L6.76,9.558l3.484-2.913L1.186,0Z" fill="#763d16" stroke="#763d16" stroke-linecap="round" stroke-linejoin="round" stroke-miterlimit="10" stroke-width="0.5"/>
      <path id="Path-27" data-name="Path" d="M5.659,1.424.734,0,2.222,2.224,0,6.505l2.938-.037H7.306Z" transform="translate(16.505 9.558)" fill="#f6851b" stroke="#f6851b" stroke-linecap="round" stroke-linejoin="round" stroke-miterlimit="10" stroke-width="0.5"/>
      <path id="Path-28" data-name="Path" d="M6.563,0,1.638,1.424,0,6.468H4.369L7.3,6.505,5.075,2.224Z" transform="translate(0.198 9.558)" fill="#f6851b" stroke="#f6851b" stroke-linecap="round" stroke-linejoin="round" stroke-miterlimit="10" stroke-width="0.5"/>
      <path id="Path-29" data-name="Path" d="M4.614,9.195l.32-5.37L6.355,0H0L1.422,3.825l.32,5.37.122,1.694.009,4.169H4.482l.009-4.169Z" transform="translate(8.822 2.82)" fill="#f6851b" stroke="#f6851b" stroke-linecap="round" stroke-linejoin="round" stroke-miterlimit="10" stroke-width="0.5"/>
    </g>
  </g>
</svg>
