<svg id="Group_14" data-name="Group 14" xmlns="http://www.w3.org/2000/svg" width="56" height="41" viewBox="0 0 56 41">
  <g id="Group_1" data-name="Group 1">
    <path id="Fill_1" data-name="Fill 1" d="M23.05,26.94a17.7,17.7,0,0,1-5.045-13.357h8.774L13.388,0,0,13.583H8.346A20.414,20.414,0,0,0,14.2,28.059,19.821,19.821,0,0,0,37,32.014,17.186,17.186,0,0,1,23.051,26.94Z" transform="translate(0 7)" fill="#998ddd"/>
    <path id="Fill_2" data-name="Fill 2" d="M28.654,20.416A20.415,20.415,0,0,0,22.805,5.94,19.822,19.822,0,0,0,0,1.987,17.18,17.18,0,0,1,13.947,7.059a17.684,17.684,0,0,1,5.047,13.357H10.218L23.607,34,37,20.416Z" transform="translate(19)" fill="#998ddd"/>
  </g>
</svg>
