<svg id="Group_9" data-name="Group 9" xmlns="http://www.w3.org/2000/svg" width="58" height="42" viewBox="0 0 58 42">
  <path id="Fill_1" data-name="Fill 1" d="M15,3V1a.968.968,0,0,0-.313-.708A1.113,1.113,0,0,0,13.929,0H12.857V2H10.714V0H8.571V2H6.429V0H4.286V2H2.143V0H1.071A1.037,1.037,0,0,0,0,1V3a.968.968,0,0,0,.313.708A1.113,1.113,0,0,0,1.071,4H13.929a1.113,1.113,0,0,0,.758-.292A.968.968,0,0,0,15,3Z" transform="translate(34 15)" fill="#998ddd"/>
  <path id="Fill_2" data-name="Fill 2" d="M15,3V1a.968.968,0,0,0-.313-.708A1.113,1.113,0,0,0,13.929,0H12.857V2H10.714V0H8.571V2H6.429V0H4.286V2H2.143V0H1.071A1.037,1.037,0,0,0,0,1V3a.968.968,0,0,0,.313.708A1.113,1.113,0,0,0,1.071,4H13.929a1.113,1.113,0,0,0,.758-.292A.968.968,0,0,0,15,3Z" transform="translate(26 20)" fill="#998ddd"/>
  <path id="Fill_3" data-name="Fill 3" d="M15,3V1a.968.968,0,0,0-.313-.708A1.113,1.113,0,0,0,13.929,0H12.857V2H10.714V0H8.571V2H6.429V0H4.286V2H2.143V0H1.071A1.037,1.037,0,0,0,0,1V3a.968.968,0,0,0,.313.708A1.113,1.113,0,0,0,1.071,4H13.929a1.113,1.113,0,0,0,.758-.292A.968.968,0,0,0,15,3Z" transform="translate(42 20)" fill="#998ddd"/>
  <path id="Fill_4" data-name="Fill 4" d="M21.026,13.008a1.354,1.354,0,0,1,.2.01l12.85,1.421a15.1,15.1,0,0,0,9.21-1.921L56.992,4.633A1.983,1.983,0,0,0,57.726,1.9a2.017,2.017,0,0,0-2.745-.73L44.252,7.335a5.035,5.035,0,0,1-2.514.67H31.171V6H41.226a2,2,0,1,0,0-4H34.187a.946.946,0,0,1-.372-.07L30.587.64A9.238,9.238,0,0,0,27.219,0H25.912a9.1,9.1,0,0,0-4.655,1.281L18.612,2.862A1,1,0,0,1,18.1,3H0V15Z" transform="translate(0 27)" fill="#998ddd"/>
  <path id="Fill_6" data-name="Fill 6" d="M17.043.077a6.27,6.27,0,0,0-6.832,3.932L9.5,5.839,8.789,4.009A6.27,6.27,0,0,0,1.957.077L0,.389.711,2.22A6.266,6.266,0,0,0,7.543,6.141L8.454,6v4h2.093V6l.91.14A6.266,6.266,0,0,0,18.289,2.22L19,.389Z" transform="translate(32)" fill="#998ddd"/>
</svg>
