<svg xmlns="http://www.w3.org/2000/svg" width="58" height="45" viewBox="0 0 58 45">
  <path id="Fill_1" data-name="Fill 1" d="M47.085,45H4.911a4.833,4.833,0,0,0-1.121-3.1A4.914,4.914,0,0,0,0,40.13V21.872H.015a4.883,4.883,0,0,0,.974-.1,4.819,4.819,0,0,0,.924-.283c.159-.068.3-.135.429-.205a4.907,4.907,0,0,0,1.133-.838A4.825,4.825,0,0,0,4.914,17l42.174,0a4.825,4.825,0,0,0,1.439,3.444,4.926,4.926,0,0,0,2.011,1.208,5.048,5.048,0,0,0,.959.2c.192.017.351.024.5.024V40.13A4.9,4.9,0,0,0,47.085,45ZM7.483,20l-.1.25a7.458,7.458,0,0,1-4.127,4.087l-.256.1V38.561l.256.1a7.443,7.443,0,0,1,4.127,4.084l.1.253H45.515l.1-.253a7.446,7.446,0,0,1,4.129-4.084l.256-.1V24.437l-.256-.1a7.46,7.46,0,0,1-4.129-4.087l-.1-.25ZM44.818,42H8.18A8.118,8.118,0,0,0,4,37.905V25.095A8.122,8.122,0,0,0,8.18,21H44.818A8.1,8.1,0,0,0,49,25.095l0,12.811A8.214,8.214,0,0,0,44.818,42ZM26.5,34.95h0L30.518,37l-.768-4.342L33,29.584l-4.491-.634L26.5,25l-2.009,3.95L20,29.584l3.25,3.074L22.485,37,26.5,34.95ZM41,31a1,1,0,0,0-.59,1.81A.992.992,0,0,0,41,33a1,1,0,1,0,0-2ZM11,31a1,1,0,1,0,.81.412A.993.993,0,0,0,11,31ZM8,30a1,1,0,0,0-.809,1.587A1.007,1.007,0,0,0,8,32a.983.983,0,0,0,.585-.192A1,1,0,0,0,8,30Zm36,0a1,1,0,1,0,.588.191A1.008,1.008,0,0,0,44,30Zm-3-2a1.011,1.011,0,0,0-.812.412A1,1,0,0,0,41,30a1,1,0,1,0,0-2ZM11,28a.989.989,0,0,0-.588.193,1,1,0,0,0,1.175,1.616,1,1,0,0,0,.221-1.4A1,1,0,0,0,11,28Zm41.669,0h0V22.858a7.4,7.4,0,0,1,2.314-2.139l.234-.138L53.126,6.534l-.264-.062c-.132-.032-.265-.068-.4-.107.193.069.39.131.586.185L55,19.591A8.344,8.344,0,0,0,53.321,21l0,0v0l.005-.49h-.814A4.118,4.118,0,0,1,48.39,16.4v-.81h-1.2a.214.214,0,0,1-.026-.022.159.159,0,0,0-.037-.029.721.721,0,0,0-.338-.084.788.788,0,0,0-.435.134h-9.9l1.184-1.548-4.478.015-2.551-3.666-1.371,4.246-3.187.955H8.355L8,13.216a8.26,8.26,0,0,0,3.564-4.787l36.62-5.419a7.534,7.534,0,0,0,4.282,3.356A8.346,8.346,0,0,1,48.247,3l-.063.009-.138-.232-37.5,5.561-.063.265A7.469,7.469,0,0,1,7.018,13.27l-.234.139L7.2,16.19H4.665L4,11.727A4.88,4.88,0,0,0,7.216,9.8a4.85,4.85,0,0,0,.913-3.63L49.733,0a4.924,4.924,0,0,0,4.843,4.173,4.962,4.962,0,0,0,.726-.054L58,22.265a4.9,4.9,0,0,0-4.128,5.557l-1.2.178ZM49,13a1,1,0,1,0,.887,1.462A1,1,0,0,0,49,13Zm-4-1a1.012,1.012,0,1,0,.462.115A.993.993,0,0,0,45,12Z" fill="#998ddd"/>
</svg>
