<svg xmlns="http://www.w3.org/2000/svg" width="62.998" height="53" viewBox="0 0 62.998 53">
  <path id="Fill_1" data-name="Fill 1" d="M31.5,53a2.087,2.087,0,0,1-1.576-.667L.513,18.826a2.157,2.157,0,0,1-.131-2.618L11.586.851A2.164,2.164,0,0,1,13.272,0H49.723a2.14,2.14,0,0,1,1.691.851l11.2,15.357a2.157,2.157,0,0,1-.131,2.618L33.076,52.333A2.087,2.087,0,0,1,31.5,53ZM22.135,19.546,31.5,44.306l9.366-24.76Zm23.218,0h0L37.081,41.4,56.273,19.546H45.353Zm-38.624,0L25.92,41.4,17.648,19.546ZM50.3,6.457h0l-3.37,8.9H56.8l-6.5-8.9ZM31.478,5.388l-8.163,9.969H39.663L31.478,5.388ZM12.7,6.458l-6.5,8.9h9.869ZM35.921,4.189l7.353,8.966,3.392-8.966H35.921Zm-19.587,0,3.393,8.966,7.352-8.966Z" transform="translate(-0.001 0)" fill="#998ddd"/>
</svg>
