<?xml version="1.0" encoding="UTF-8"?>
<svg width="290px" height="290px" viewBox="0 0 290 290" version="1.1" xmlns="http://www.w3.org/2000/svg" xmlns:xlink="http://www.w3.org/1999/xlink">
    <title>Fuzion-Dark</title>
    <defs>
        <linearGradient x1="79.2013378%" y1="7.69465366%" x2="28.2538431%" y2="96.647557%" id="linearGradient-1">
            <stop stop-color="#FFECA5" offset="0%"></stop>
            <stop stop-color="#E1B244" offset="100%"></stop>
        </linearGradient>
        <linearGradient x1="50%" y1="0%" x2="50%" y2="100%" id="linearGradient-2">
            <stop stop-color="#212222" offset="0%"></stop>
            <stop stop-color="#1A1B1B" offset="100%"></stop>
        </linearGradient>
        <linearGradient x1="76.0334306%" y1="9.69300229%" x2="30.4658803%" y2="94.6541847%" id="linearGradient-3">
            <stop stop-color="#F4CB67" offset="0%"></stop>
            <stop stop-color="#C27A14" offset="100%"></stop>
        </linearGradient>
        <path d="M0,102.626 L81.6298762,149.844081 L124.552954,124.984098 L145.488,137.094 L76.5000918,177 L0.00018356826,132.75 L0,102.626 Z M0,52.937 L109.236954,116.124098 L81.6248005,132.116756 L0,84.902 L0,52.937 Z M72.2168188,45.0222033 L152.999,91.748 L152.999,123.714 L44.4369537,60.9170975 L72.2168188,45.0222033 Z M76.5000918,-6.78600052e-15 L153,44.25 L152.999,74.025 L72.2588248,27.3220975 L29.2369537,52.1250975 L7.81,39.732 L76.5000918,-6.78600052e-15 Z" id="path-4"></path>
        <radialGradient cx="50%" cy="50%" fx="50%" fy="50%" r="50.1401147%" gradientTransform="translate(0.500000,0.500000),scale(0.780612,1.000000),rotate(85.715620),scale(1.000000,1.286337),translate(-0.500000,-0.500000)" id="radialGradient-6">
            <stop stop-color="#EC9B27" stop-opacity="0" offset="0%"></stop>
            <stop stop-color="#FFFFFF" stop-opacity="0.495184625" offset="100%"></stop>
        </radialGradient>
        <circle id="path-7" cx="144.5" cy="144.5" r="137.5"></circle>
        <filter x="-3.3%" y="-3.3%" width="106.5%" height="106.5%" filterUnits="objectBoundingBox" id="filter-8">
            <feOffset dx="0" dy="0" in="SourceAlpha" result="shadowOffsetOuter1"></feOffset>
            <feMorphology radius="12" operator="erode" in="SourceAlpha" result="shadowInner"></feMorphology>
            <feOffset dx="0" dy="0" in="shadowInner" result="shadowInner"></feOffset>
            <feComposite in="shadowOffsetOuter1" in2="shadowInner" operator="out" result="shadowOffsetOuter1"></feComposite>
            <feGaussianBlur stdDeviation="3" in="shadowOffsetOuter1" result="shadowBlurOuter1"></feGaussianBlur>
            <feColorMatrix values="0 0 0 0 0   0 0 0 0 0   0 0 0 0 0  0 0 0 0.5 0" type="matrix" in="shadowBlurOuter1"></feColorMatrix>
        </filter>
    </defs>
    <g id="Page-1" stroke="none" stroke-width="1" fill="none" fill-rule="evenodd">
        <g id="Fuzion-Dark" transform="translate(1.000000, 1.000000)">
            <g id="Group-5-Copy" transform="translate(144.000000, 144.000000) scale(-1, 1) translate(-144.000000, -144.000000) ">
                <path d="M144,288 C223.529004,288 288,223.529004 288,144 C288,64.470996 223.529004,0 144,0 C64.470996,0 0,64.470996 0,144 C0,223.529004 64.470996,288 144,288 Z" id="Oval" stroke="url(#linearGradient-1)" fill="#1A1B1B" stroke-dasharray="2,2"></path>
                <circle id="Oval-Copy-7" stroke="url(#linearGradient-1)" stroke-width="4" fill="#1A1B1B" cx="144" cy="144" r="141"></circle>
                <circle id="Oval-Copy-5" fill="url(#linearGradient-2)" cx="144" cy="144" r="116"></circle>
                <line x1="57.5" y1="230.5" x2="225.5" y2="63.5" id="Line" stroke="#1A1B1B" stroke-width="7" stroke-linecap="square"></line>
                <g id="Oval-Copy-6" style="mix-blend-mode: screen;" transform="translate(68.000000, 56.000000)">
                    <mask id="mask-5" fill="white">
                        <use xlink:href="#path-4"></use>
                    </mask>
                    <use id="Mask" stroke="url(#linearGradient-3)" stroke-width="2" fill="#EC9B27" xlink:href="#path-4"></use>
                    <ellipse id="Oval" fill="url(#radialGradient-6)" opacity="0.746029082" mask="url(#mask-5)" cx="57" cy="29.5" rx="98" ry="76.5"></ellipse>
                </g>
                <g id="Oval-Copy-4">
                    <use fill="black" fill-opacity="1" filter="url(#filter-8)" xlink:href="#path-7"></use>
                    <circle stroke="#202121" stroke-width="12" stroke-linejoin="square" cx="144.5" cy="144.5" r="131.5"></circle>
                </g>
            </g>
        </g>
    </g>
</svg>