<?xml version="1.0" encoding="UTF-8"?>
<svg width="1735px" height="1735px" viewBox="0 0 1735 1735" version="1.1" xmlns="http://www.w3.org/2000/svg" xmlns:xlink="http://www.w3.org/1999/xlink">
    <title>seal-updated</title>
    <defs>
        <linearGradient x1="50%" y1="0%" x2="50%" y2="100%" id="linearGradient-1">
            <stop stop-color="#E9D288" offset="0%"></stop>
            <stop stop-color="#DCB045" offset="100%"></stop>
        </linearGradient>
        <linearGradient x1="50%" y1="0%" x2="50%" y2="100%" id="linearGradient-2">
            <stop stop-color="#DCB045" offset="0%"></stop>
            <stop stop-color="#E9D288" offset="100%"></stop>
        </linearGradient>
        <linearGradient x1="79.2013378%" y1="7.69465366%" x2="28.2538431%" y2="96.647557%" id="linearGradient-3">
            <stop stop-color="#FFECA5" offset="0%"></stop>
            <stop stop-color="#E1B244" offset="100%"></stop>
        </linearGradient>
        <linearGradient x1="50%" y1="0%" x2="50%" y2="100%" id="linearGradient-4">
            <stop stop-color="#212222" offset="0%"></stop>
            <stop stop-color="#1A1B1B" offset="100%"></stop>
        </linearGradient>
        <polygon id="path-5" points="0 1.18059621e-13 96 1.18059621e-13 96 78 0 78"></polygon>
        <circle id="path-7" cx="860.999819" cy="867" r="687.5"></circle>
        <filter x="-3.3%" y="-3.3%" width="106.5%" height="106.5%" filterUnits="objectBoundingBox" id="filter-8">
            <feOffset dx="0" dy="0" in="SourceAlpha" result="shadowOffsetOuter1"></feOffset>
            <feMorphology radius="60" operator="erode" in="SourceAlpha" result="shadowInner"></feMorphology>
            <feOffset dx="0" dy="0" in="shadowInner" result="shadowInner"></feOffset>
            <feComposite in="shadowOffsetOuter1" in2="shadowInner" operator="out" result="shadowOffsetOuter1"></feComposite>
            <feGaussianBlur stdDeviation="15" in="shadowOffsetOuter1" result="shadowBlurOuter1"></feGaussianBlur>
            <feColorMatrix values="0 0 0 0 0   0 0 0 0 0   0 0 0 0 0  0 0 0 0.5 0" type="matrix" in="shadowBlurOuter1"></feColorMatrix>
        </filter>
        <linearGradient x1="75.9216971%" y1="9.69300229%" x2="30.5497193%" y2="94.6541847%" id="linearGradient-9">
            <stop stop-color="#F4CB67" offset="0%"></stop>
            <stop stop-color="#C27A14" offset="100%"></stop>
        </linearGradient>
        <path d="M0,291.065 L231.017885,424.981519 L352.496072,354.474791 L411.746,388.82 L216.50026,502 L0.000519510174,376.5 L0,291.065 Z M0,150.14 L309.150072,329.348791 L231.003521,374.70402 L0,240.796 L0,150.14 Z M204.378317,127.690091 L432.999,260.216 L432.999,350.872 L125.759072,172.771791 L204.378317,127.690091 Z M216.50026,4.38705146e-15 L433,125.5 L432.999,209.947 L204.497197,77.4897908 L82.7440716,147.836791 L22.104,112.686 L216.50026,4.38705146e-15 Z" id="path-10"></path>
        <radialGradient cx="50%" cy="50%" fx="50%" fy="50%" r="50.1399128%" gradientTransform="translate(0.500000,0.500000),scale(0.781176,1.000000),rotate(85.718700),scale(1.000000,1.286337),translate(-0.500000,-0.500000)" id="radialGradient-12">
            <stop stop-color="#EC9B27" stop-opacity="0" offset="0%"></stop>
            <stop stop-color="#FFFFFF" stop-opacity="0.495184625" offset="100%"></stop>
        </radialGradient>
    </defs>
    <g id="Page-1" stroke="none" stroke-width="1" fill="none" fill-rule="evenodd">
        <g id="seal-updated" transform="translate(3.500181, 3.500000)">
            <path d="M883.213795,6.53137887 L973.558416,75.9476079 C982.036093,82.4667459 993.248731,84.2434209 1003.32122,80.6620919 L1110.69814,42.5615074 C1124.16309,37.7840705 1139.15991,42.6594344 1147.24588,54.4386494 L1211.7168,148.371594 C1217.76728,157.192016 1227.87475,162.340176 1238.56977,162.060385 L1352.45883,158.99667 C1366.74218,158.611957 1379.50066,167.887039 1383.55064,181.58982 L1415.83856,290.855329 C1418.8673,301.109681 1426.89032,309.132697 1437.14467,312.161439 L1546.41018,344.449358 C1560.11996,348.499338 1569.38804,361.257822 1568.99634,375.54117 L1565.94661,489.430231 C1565.65283,500.125254 1570.80798,510.232716 1579.62841,516.283204 L1673.56135,580.747126 C1685.34756,588.84009 1690.21593,603.836906 1685.4315,617.301864 L1647.33091,724.678781 C1643.76357,734.751269 1645.52626,745.956912 1652.0454,754.441584 L1721.46862,844.77921 C1730.17013,856.117754 1730.17013,871.883995 1721.46862,883.215544 L1652.0454,973.560165 C1645.52626,982.044837 1643.76357,993.243485 1647.33091,1003.32297 L1685.4315,1110.69289 C1690.21593,1124.16484 1685.34756,1139.16166 1673.56135,1147.25462 L1579.62841,1211.71155 C1570.80798,1217.76903 1565.65283,1227.87649 1565.94661,1238.56452 L1568.99634,1352.46058 C1569.38804,1366.74393 1560.11996,1379.50241 1546.41018,1383.55239 L1437.14467,1415.84031 C1426.89032,1418.86905 1418.8673,1426.89207 1415.83856,1437.14642 L1383.55064,1546.41193 C1379.50066,1560.11471 1366.74218,1569.3828 1352.45883,1569.00508 L1238.56977,1565.94136 C1227.87475,1565.65458 1217.76728,1570.80274 1211.7168,1579.62316 L1147.24588,1673.5631 C1139.15991,1685.34231 1124.16309,1690.21768 1110.69814,1685.44024 L1003.32122,1647.33966 C993.248731,1643.75833 982.036093,1645.535 973.558416,1652.05414 L883.213795,1721.46338 C871.882246,1730.17887 856.116005,1730.17887 844.777461,1721.46338 L754.439835,1652.05414 C745.962158,1645.535 734.756515,1643.75833 724.677033,1647.33966 L617.300115,1685.44024 C603.835157,1690.21768 588.838342,1685.34231 580.745378,1673.5631 L516.281455,1579.62316 C510.230968,1570.80274 500.123506,1565.65458 489.428482,1565.94136 L375.539421,1569.00508 C361.249079,1569.3828 348.497589,1560.11471 344.447609,1546.41193 L312.15969,1437.14642 C309.130949,1426.89207 301.107932,1418.86905 290.85358,1415.84031 L181.588071,1383.55239 C167.88529,1379.50241 158.617203,1366.74393 158.994921,1352.46058 L162.051641,1238.56452 C162.345422,1227.87649 157.197262,1217.76903 148.37684,1211.71155 L54.4369007,1147.25462 C42.6576857,1139.16166 37.7823218,1124.16484 42.5597587,1110.69289 L80.6673379,1003.32297 C84.2416722,993.243485 82.4649972,982.044837 75.9458592,973.560165 L6.53662496,883.215544 C-2.17887499,871.883995 -2.17887499,856.117754 6.53662496,844.77921 L75.9458592,754.441584 C82.4649972,745.956912 84.2416722,734.751269 80.6673379,724.678781 L42.5597587,617.301864 C37.7823218,603.836906 42.6576857,588.84009 54.4369007,580.747126 L148.37684,516.283204 C157.197262,510.232716 162.345422,500.125254 162.051641,489.430231 L158.994921,375.54117 C158.617203,361.257822 167.88529,348.499338 181.588071,344.449358 L290.85358,312.161439 C301.107932,309.132697 309.130949,301.109681 312.15969,290.855329 L344.447609,181.58982 C348.497589,167.887039 361.249079,158.611957 375.539421,158.99667 L489.428482,162.060385 C500.123506,162.340176 510.230968,157.192016 516.281455,148.371594 L580.745378,54.4386494 C588.838342,42.6594344 603.835157,37.7840705 617.300115,42.5615074 L724.677033,80.6620919 C734.756515,84.2434209 745.962158,82.4667459 754.439835,75.9476079 L844.777461,6.53137887 C856.116005,-2.17712629 871.882246,-2.17712629 883.213795,6.53137887" id="Fill-4" stroke="url(#linearGradient-2)" stroke-width="6" fill="url(#linearGradient-1)"></path>
            <circle id="Oval-Copy-7" stroke="url(#linearGradient-3)" stroke-width="20" fill="#1A1B1B" transform="translate(863.499819, 864.500000) scale(-1, 1) translate(-863.499819, -864.500000) " cx="863.499819" cy="864.5" r="705"></circle>
            <circle id="Oval-Copy-5" fill="url(#linearGradient-4)" transform="translate(863.499819, 866.500000) scale(-1, 1) translate(-863.499819, -866.500000) " cx="863.499819" cy="866.5" r="618"></circle>
            <g id="Group-86" transform="translate(359.499819, 299.500000)">
                <g id="Group-3" transform="translate(0.000000, 289.000000)">
                    <mask id="mask-6" fill="white">
                        <use xlink:href="#path-5"></use>
                    </mask>
                    <g id="Clip-2"></g>
                    <path d="M91.7632095,62.3030314 C88.1983817,69.0156588 83.759162,73.551667 78.4413469,75.906902 C73.1235317,78.2662908 66.7253383,78.6318299 59.2467666,76.9993655 C51.7681949,75.366901 43.0200737,71.9524333 32.9981991,66.7601163 C17.8350693,58.9010252 7.92249364,50.8176261 3.25206467,42.4974573 C-1.4183643,34.1814423 -1.06104075,24.9474257 4.32823912,14.7995613 C7.241477,9.31647457 10.8357315,5.33292895 15.1067989,2.84892448 C19.38207,0.36907387 24.5653634,-0.49077383 30.6608827,0.265227529 C36.7564021,1.02538274 43.9028731,3.52600262 52.1002957,7.77539488 L43.8902616,23.2484996 C39.5014877,20.9721878 35.5877439,19.3355695 32.1574378,18.3386446 C28.722928,17.3417198 25.8180977,17.1963349 23.4429471,17.8941823 C21.0635926,18.5961836 19.1592683,20.2909558 17.7257703,22.9951145 C16.2922723,25.6951194 15.9769868,28.3785088 16.7841176,31.0369752 C17.5870447,33.6995953 19.5544261,36.3622155 22.6820581,39.0248357 C25.8096901,41.6916097 30.2320945,44.5037686 35.9492713,47.4654662 L47.749356,53.5840926 C53.3866604,56.5042517 58.1874074,58.4981014 62.1642083,59.5656418 C66.1368054,60.6331822 69.4115706,60.7370285 71.9800964,59.8771808 C74.5486221,59.0173331 76.549634,57.2353299 77.983132,54.5353251 C79.3745919,51.9183973 79.7571383,49.4053159 79.1349749,46.9919269 C78.5128116,44.5826918 76.8943461,42.2565338 74.2837823,40.0134528 C71.6690147,37.7745257 68.0873716,35.4732908 63.5304454,33.1097481 L71.5429005,18.0063363 C79.6646546,22.2183439 85.7055244,26.6546596 89.6739177,31.3194372 C93.642311,35.9842148 95.7400104,40.8816082 95.9754236,46.0116175 C96.206633,51.1416267 94.8067654,56.5748672 91.7632095,62.3030314" id="Fill-1" fill="#DFB956" mask="url(#mask-6)"></path>
                </g>
                <path d="M109.467429,294.242708 C110.62639,292.565776 111.021019,290.893014 110.655468,289.224424 C110.289918,287.555834 109.0728,285.695357 107.00827,283.634648 C104.947894,281.578111 101.903023,279.14197 97.8736585,276.338739 L89.3330669,270.386045 C85.3078561,267.582814 81.9722068,265.572163 79.3261188,264.349921 C76.6841848,263.13185 74.519959,262.639616 72.8375954,262.87739 C71.1510777,263.119336 69.7304151,264.074604 68.5714535,265.751537 C67.4664937,267.353383 67.0801732,269.009458 67.4207999,270.71142 C67.7614266,272.421724 68.978544,274.282202 71.0679981,276.305367 C73.1574521,278.328533 76.2189385,280.739645 80.2441493,283.542876 L88.784741,289.49557 C92.8141057,292.298801 96.1331391,294.330309 98.7501492,295.590095 C101.367159,296.84988 103.531385,297.337943 105.242827,297.062625 C106.954268,296.787308 108.362469,295.844555 109.467429,294.242708 M120.404869,301.863993 C117.243687,306.4401 113.571565,309.472762 109.388503,310.96615 C105.209595,312.459538 100.287123,312.334394 94.6293968,310.594889 C88.9675163,308.855384 82.4540689,305.418089 75.0890548,300.287175 C67.645115,295.102032 62.1244699,290.150492 58.5146576,285.436725 C54.9131532,280.722959 53.0729382,276.138508 53.0023205,271.679202 C52.9317027,267.224067 54.4728309,262.70636 57.6340129,258.134424 C60.7453471,253.633403 64.4008533,250.617427 68.6088394,249.086495 C72.8168254,247.555564 77.7642207,247.643165 83.4510252,249.345127 C89.1378296,251.047088 95.7011248,254.488555 103.145065,259.673698 C110.510079,264.808783 115.98503,269.751981 119.56161,274.50329 C123.142345,279.258771 124.953482,283.880765 124.999176,288.373444 C125.040716,292.866122 123.512049,297.362971 120.404869,301.863993" id="Fill-4" fill="#DFB956"></path>
                <path d="M136.227095,277 L81,228.790347 L90.0414013,218.398322 L97.4794219,223.41286 L97.8459089,222.991505 C96.6298383,220.576017 95.9301813,218.306542 95.7511024,216.178909 C95.5720235,214.051276 95.8302303,212.02794 96.5173934,210.104726 C97.2087212,208.181513 98.3123469,206.345909 99.8365997,204.597913 C102.147967,201.936286 104.530132,200.230008 106.970603,199.466563 C109.415238,198.70729 112.005634,198.874164 114.737629,199.971355 C117.473787,201.064374 120.451494,203.016789 123.66242,205.820258 L166,242.778489 L155.496815,254.851761 L116.724155,221.001543 C115.816267,220.208896 114.933366,219.562262 114.079618,219.061643 C113.221705,218.561023 112.376286,218.193902 111.539196,217.956108 C110.702107,217.718314 109.898334,217.722486 109.127878,217.972795 C108.357423,218.223105 107.603626,218.769615 106.874816,219.608152 C105.71705,220.938966 105.250612,222.465855 105.463008,224.192992 C105.683733,225.924301 106.537482,227.83917 108.028417,229.941772 C109.515189,232.044374 111.693288,234.343051 114.55855,236.841977 L146.730279,264.926728 L136.227095,277 Z" id="Fill-6" fill="#DFB956"></path>
                <path d="M185.814749,227.417893 C182.611479,230.393895 179.638509,232.459984 176.895839,233.611985 C174.153169,234.763986 171.531931,235.202247 169.036311,234.914247 C166.540691,234.634594 164.166502,233.762246 161.909558,232.301375 C159.652613,230.844678 157.479413,228.991459 155.381585,226.750066 C155.063352,226.411979 154.682309,225.969544 154.238457,225.426935 C153.798793,224.888499 153.388439,224.350064 153.015771,223.807455 L163.542597,214.023795 C163.919453,214.56223 164.283746,215.021361 164.631291,215.392839 C164.978835,215.764318 165.347316,216.156666 165.728359,216.561536 C166.934296,217.85545 168.186293,218.853016 169.480163,219.554234 C170.769846,220.255452 172.097214,220.547626 173.453893,220.430756 C174.806385,220.313887 176.100256,219.683625 177.327129,218.54832 C178.554003,217.408841 179.299339,216.231796 179.575699,215.025535 C179.847873,213.823447 179.709692,212.550402 179.165346,211.218923 C178.616812,209.887443 177.678861,208.505877 176.343118,207.078397 C174.756138,205.379613 173.060289,204.415439 171.25557,204.190047 C169.446665,203.960482 167.583324,204.114917 165.652987,204.636656 C163.722651,205.158396 161.687632,205.776135 159.556305,206.489875 C157.617594,207.149354 155.607698,207.717007 153.514058,208.201181 C151.420417,208.689529 149.217906,208.856486 146.919089,208.710399 C144.616084,208.564312 142.25027,207.909007 139.817459,206.736136 C137.388835,205.571614 134.90159,203.626568 132.35991,200.909349 C129.881039,198.258912 128.147505,195.587605 127.155119,192.891255 C126.158546,190.194905 125.806814,187.540294 126.099924,184.919074 C126.388846,182.302029 127.201179,179.797679 128.536922,177.414372 C129.872665,175.031066 131.664821,172.793847 133.913392,170.702715 C136.166149,168.611582 138.494278,166.987929 140.910339,165.823406 C143.326401,164.658883 145.717339,164.049492 148.095715,164.003579 C150.469904,163.953492 152.75616,164.429318 154.967044,165.42271 C157.169555,166.42445 159.292506,168.006365 161.323338,170.180975 C161.834186,170.723584 162.370159,171.332976 162.943816,172.013324 C163.509099,172.689499 164.01576,173.332282 164.455425,173.9375 L154.029093,183.629334 L151.839145,181.283593 C150.566211,179.92707 149.360274,179.012982 148.225521,178.545504 C147.08658,178.078025 145.989512,177.990373 144.921755,178.282547 C143.858186,178.574721 142.882549,179.134026 141.994845,179.952114 C141.245322,180.653332 140.692601,181.387941 140.336682,182.164289 C139.980763,182.940638 139.850957,183.758726 139.951452,184.614378 C140.051947,185.474205 140.319933,186.338206 140.751223,187.206381 C141.182513,188.074555 141.810605,188.951078 142.6355,189.835948 C143.971242,191.259254 145.495413,192.068993 147.199637,192.260994 C148.908048,192.452994 150.712766,192.23595 152.609605,191.609863 C154.510631,190.987949 156.499589,190.353514 158.563919,189.698209 C160.502631,188.913513 162.587897,188.216468 164.815531,187.602903 C167.047352,186.989337 169.316859,186.72638 171.615677,186.805685 C173.922869,186.889163 176.29287,187.477685 178.725681,188.579599 C181.158492,189.685687 183.645737,191.593167 186.187417,194.310387 C189.047331,197.369867 191.099099,200.379261 192.346909,203.346916 C193.594719,206.318745 194.134878,209.211269 193.971574,212.028662 C193.804083,214.85023 193.033623,217.534058 191.660195,220.080147 C190.282579,222.63041 188.335493,225.076326 185.814749,227.417893" id="Fill-8" fill="#DFB956"></path>
                <path d="M218.563326,199.633859 C215.942784,201.704596 213.484724,202.817043 211.189146,202.975369 C208.893567,203.137862 206.672981,202.496225 204.535718,201.054626 C202.39429,199.617193 200.290357,197.588122 198.219753,194.967411 L170.122875,159.389913 L165.76086,162.839751 L157.482613,152.361076 L162.177925,148.657083 L151,130.016291 L161.148872,122 L174.509888,138.915873 L180.838351,133.916108 L189.112432,144.394783 L182.783968,149.390382 L208.985224,182.567993 C210.189257,184.097088 211.264137,185.084542 212.201533,185.522021 C213.138929,185.963667 214.151317,185.751177 215.247028,184.888717 L218.846628,182.043018 L226,191.100926 C225.208421,192.196708 224.387679,193.288324 223.533607,194.375773 C222.679536,195.467388 221.858793,196.438176 221.063049,197.304802 C220.267304,198.167261 219.434063,198.942225 218.563326,199.633859" id="Fill-10" fill="#DFB956"></path>
                <path d="M229.951167,189 L189,128.193381 L200.001068,120.529702 L206.313292,128.16405 L206.770639,127.849793 C206.049596,125.298027 205.666412,122.997666 205.616969,120.940331 C205.567526,118.887186 205.880665,117.085446 206.560507,115.535112 C207.240348,113.988968 208.299252,112.71518 209.73722,111.713748 C210.264612,111.34502 210.841447,111.001432 211.459484,110.682985 C212.077522,110.364538 212.728521,110.138273 213.412483,110 L223.049748,124.309165 L218.624599,127.388883 C217.339081,128.285563 216.432626,129.370797 215.901114,130.644585 C215.369602,131.918373 215.217152,133.380715 215.439646,135.031611 C215.662139,136.686698 216.284297,138.59738 217.301999,140.767848 C218.319701,142.942506 219.737067,145.372759 221.549977,148.066988 L243,179.91169 L229.951167,189 Z" id="Fill-12" fill="#DFB956"></path>
                <path d="M268.68908,164.685529 C264.208126,167.183197 260.197085,167.659341 256.655957,166.113961 C253.114828,164.572758 249.745722,160.964087 246.557028,155.287949 L219,106.257645 L233.055427,98.4305054 L258.355195,143.442823 C258.946781,144.499528 259.563542,145.405873 260.205476,146.166032 C260.847411,146.930369 261.52291,147.561051 262.236171,148.070608 C262.949431,148.580166 263.725627,148.814061 264.560561,148.772294 C265.3913,148.734704 266.255603,148.467395 267.153472,147.966191 C268.701667,147.10579 269.696036,145.831896 270.140775,144.148685 C270.585514,142.461298 270.413492,140.347886 269.628906,137.804275 C268.840124,135.26484 267.535277,132.366209 265.710169,129.120912 L244.786464,91.8939667 L258.963564,84 L295,148.112375 L282.778072,154.9204 L277.478967,147.490047 L276.988076,147.761532 C277.24401,150.497272 277.101358,152.915583 276.572706,155.020641 C276.044054,157.125698 275.129403,158.967624 273.824556,160.546417 C272.519709,162.125211 270.803688,163.503522 268.68908,164.685529" id="Fill-14" fill="#DFB956"></path>
                <path d="M322.997192,138.799393 C317.705578,141.024913 312.871159,141.562396 308.489702,140.411845 C304.112479,139.265493 300.061219,136.372317 296.344389,131.749116 C292.623325,127.121715 289.037727,120.768487 285.579128,112.681034 C281.972364,104.249255 279.847251,97.0772038 279.208024,91.1522834 C278.568797,85.2315621 279.402756,80.3648132 281.7099,76.5478375 C284.017044,72.7392601 287.72964,69.7537048 292.843457,67.5995701 C296.661886,65.9955165 300.154351,65.1347024 303.32932,65.0129287 C306.504288,64.8953541 309.404093,65.5798063 312.032967,67.0620862 C314.661841,68.544366 317.12985,70.9042564 319.436994,74.1459563 C321.744138,77.3876562 323.983549,81.5447584 326.155228,86.6172629 L311.326008,92.8613143 C309.670791,88.9897505 308.201838,85.9790007 306.923384,83.8248659 C305.64493,81.6749302 304.341076,80.2976277 303.00759,79.6887592 C301.674103,79.0840898 300.095085,79.1638726 298.27477,79.9281075 C296.801584,80.5495733 295.743261,81.6035457 295.099801,83.0942237 C294.456341,84.5807027 294.447874,86.7684302 295.065935,89.6532072 C295.688228,92.5421833 297.025949,96.3927517 299.087562,101.209111 L303.337786,111.144166 C304.739006,114.41106 306.174092,117.358824 307.655744,119.983257 C309.137396,122.60769 310.746047,124.518277 312.485929,125.715019 C314.225812,126.907561 316.050361,127.104919 317.959575,126.302892 C319.690992,125.576449 320.855147,124.526676 321.447808,123.157771 C322.040469,121.797265 322.053168,119.911872 321.490141,117.509991 C320.92288,115.10811 319.792591,111.933595 318.099274,107.973851 L332.66603,101.843175 C334.507512,106.147245 335.773266,110.182573 336.463293,113.94916 C337.15332,117.715747 337.178719,121.184197 336.535259,124.346115 C335.896032,127.508032 334.473646,130.29203 332.276568,132.685514 C330.079489,135.078997 326.984953,137.119756 322.997192,138.799393" id="Fill-16" fill="#DFB956"></path>
                <path d="M363.035732,123.054437 C359.850844,124.080297 357.150795,124.270578 354.935584,123.629415 C352.720374,122.988252 350.852073,121.631469 349.343222,119.550792 C347.826012,117.474252 346.551221,114.859962 345.518849,111.707923 L331.445992,68.9072013 L326.142026,70.61559 L322,58.0115697 L327.701033,56.1749484 L323.667677,34.971073 L336.005983,31 L342.693411,51.3517493 L350.388133,48.8698286 L354.530159,61.473849 L346.835437,63.9516331 L359.955335,103.865054 C360.561383,105.705811 361.225947,106.992274 361.957384,107.720304 C362.688822,108.456607 363.717014,108.609659 365.04196,108.179459 L369.418046,106.768901 L373,117.668669 C371.875676,118.417382 370.722095,119.149548 369.543436,119.869305 C368.360597,120.589062 367.244632,121.213679 366.199721,121.747292 C365.150631,122.276768 364.097361,122.711104 363.035732,123.054437" id="Fill-18" fill="#DFB956"></path>
                <path d="M381.326016,72.4164525 L396.219376,68.9432629 C395.439857,65.4910214 394.685084,62.5792401 393.963306,60.2121085 C393.237405,57.8491665 392.462009,55.9722197 391.632997,54.5896473 C390.799859,53.2070748 389.842989,52.3063079 388.762385,51.8873466 C387.681781,51.4683852 386.419702,51.4264891 384.992645,51.7616582 C382.843811,52.2602222 381.346638,53.3537113 380.505252,55.0337463 C379.659742,56.7137813 379.350408,58.9845518 379.573128,61.8502474 C379.795848,64.715943 380.381519,68.2394079 381.326016,72.4164525 M398.669295,114.140813 C393.031182,115.452162 388.205585,115.263629 384.200752,113.566836 C380.191795,111.874232 376.756134,108.442938 373.893772,103.277145 C371.031409,98.1113517 368.593864,91.0728011 366.581136,82.1698726 C364.48592,72.9024476 363.665156,65.3234369 364.122969,59.4244612 C364.580782,53.5338647 366.350167,48.9588068 369.427001,45.7076668 C372.503835,42.4565267 376.859245,40.1731874 382.497358,38.8576488 C387.685906,37.6468505 392.198045,37.7180739 396.033776,39.0713191 C399.873632,40.4245642 403.173185,43.4787924 405.94481,48.2381933 C408.716435,52.9975942 411.129234,59.9188356 413.183206,69.0061071 L414.383419,74.318537 L383.388237,81.5498098 C384.518334,86.5480186 385.623685,90.5909956 386.700164,93.6871199 C387.772519,96.7874339 389.042847,98.953464 390.498775,100.1894 C391.954703,101.429526 393.757084,101.798212 395.905919,101.299648 C397.155624,101.006375 398.194984,100.503621 399.023997,99.7830075 C399.848885,99.062394 400.451054,98.086214 400.830502,96.8502781 C401.209951,95.6143421 401.350182,94.0516163 401.25532,92.157911 C401.156333,90.2683953 400.863498,88.039521 400.380938,85.4754776 L415.810476,81.8765996 C416.746724,86.4432783 417.130297,90.5365306 416.961195,94.1605462 C416.792093,97.7887515 415.991951,100.918393 414.564894,103.54528 C413.129588,106.176358 411.083865,108.375905 408.427724,110.139732 C405.767459,111.911938 402.513275,113.244235 398.669295,114.140813" id="Fill-20" fill="#DFB956"></path>
                <path d="M447.297812,90.7212288 C449.212262,90.498667 450.615093,89.6294162 451.510428,88.1134764 C452.397512,86.5975366 452.938014,84.3971143 453.119557,81.5080101 C453.3011,78.618906 453.152565,75.0831129 452.682204,70.9048301 L451.679593,61.9939595 C451.300004,58.6513332 450.817265,55.7958233 450.223125,53.414832 C449.628985,51.0422392 448.952326,49.1189693 448.184896,47.6576202 C447.421591,46.196271 446.493248,45.1548497 445.408117,44.5291571 C444.318861,43.9034645 443.138833,43.6641056 441.863908,43.8152796 C440.221772,44.0042472 438.946847,44.8147081 438.047385,46.2340645 C437.143797,47.6576202 436.619799,49.7866547 436.479516,52.6253675 C436.339233,55.4640803 436.524902,59.159446 437.040648,63.7030661 L438.043259,72.618136 C438.546628,77.0735713 439.182027,80.663955 439.953584,83.3976858 C440.72514,86.1314166 441.707121,88.0840814 442.903653,89.2598796 C444.100184,90.4398771 445.564904,90.9227942 447.297812,90.7212288 M443.184219,105.876428 C438.988106,106.367743 435.439771,105.39351 432.530962,102.962128 C429.622152,100.526546 427.229089,96.5246327 425.351772,90.9605877 C423.478582,85.3965427 422.02624,78.0646012 420.998873,68.9689623 C419.992136,60.0580918 419.744578,52.7723423 420.26445,47.1159131 C420.780197,41.459484 422.166523,37.1804184 424.427555,34.2829158 C426.688587,31.3896124 429.824325,29.7015021 433.838895,29.2311828 C436.207202,28.9582297 438.282565,29.113603 440.060859,29.7057014 C441.835026,30.2977998 443.402895,31.2678333 444.756214,32.6116026 C446.105406,33.9595713 447.264804,35.609888 448.226155,37.5667521 L448.911067,37.4869658 L444.884119,1.83928431 L460.620572,0 L472,100.812097 L459.143475,102.315439 L457.039229,93.5305466 L456.358444,93.6103329 C455.677659,96.6086183 454.295459,99.2877585 452.203591,101.647753 C450.11585,104.007748 447.108017,105.418706 443.184219,105.876428" id="Fill-22" fill="#DFB956"></path>
                <path d="M503.146254,99.5766312 L493,26 L509.513674,26.8091728 L512.539239,61.3463281 C512.659929,62.6493038 512.763971,64.3381927 512.847206,66.4254436 C512.93044,68.5085449 513.034483,70.5708982 513.167658,72.6083538 C513.296671,74.649959 513.375743,76.4093912 513.39239,77.8907999 L514.366231,77.9405951 C514.63258,76.2890527 514.886445,74.4051324 515.127824,72.2888343 C515.373365,70.1766858 515.656361,68.1558286 515.985137,66.2304122 C516.30975,64.3049959 516.596908,62.7032487 516.846611,61.421021 L523.247325,27.4814087 L541.284185,28.3652744 L544.039239,62.7488943 C544.151605,64.2344526 544.272295,65.9980344 544.40547,68.03549 C544.534483,70.0812449 544.646849,72.0938029 544.734245,74.0856129 C544.821641,76.0774229 544.871581,77.8617527 544.888228,79.4344526 L545.995244,79.4883975 C546.165874,77.9239967 546.415577,76.1106197 546.752675,74.0482664 C547.085612,71.9817636 547.393579,69.965056 547.676576,67.9898444 C547.959572,66.0187824 548.22176,64.3921376 548.471463,63.1057603 L555.017836,29.0375102 L570,29.7719902 L552.674792,102 L535.054102,101.136882 L531.882878,66.7325143 C531.774673,65.1556648 531.653983,63.371335 531.520809,61.3753754 C531.387634,59.3794158 531.279429,57.3668578 531.192033,55.3252525 C531.108799,53.2919465 531.004756,51.5740104 530.89239,50.1797434 L529.918549,50.1340977 C529.756243,51.6030576 529.48157,53.370789 529.102854,55.4331422 C528.724138,57.4954955 528.391201,59.4873055 528.112366,61.4168714 C527.82937,63.3464373 527.56302,65.0436254 527.304994,66.5084357 L520.766944,100.439749 L503.146254,99.5766312 Z" id="Fill-24" fill="#DFB956"></path>
                <path d="M580.873022,20.403384 L583.22982,5 L599,7.42618931 L596.643202,22.8295733 L580.873022,20.403384 Z M568,104.573811 L579.08568,32.0924473 L594.855859,34.5186366 L583.77018,107 L568,104.573811 Z" id="Fill-26" fill="#DFB956"></path>
                <path d="M606.168067,113.483745 C602.890468,112.771847 600.454246,111.571308 598.863585,109.882129 C597.272925,108.197162 596.352016,106.053042 596.100859,103.458193 C595.845516,100.859132 596.075743,97.9146532 596.783169,94.616331 L606.40248,49.813068 L600.939816,48.6251666 L603.773704,35.4318778 L609.64659,36.70824 L616.951071,16 L629.651241,18.7633453 L625.080184,40.065536 L633,41.784202 L630.166112,54.9817032 L622.246297,53.2588248 L613.275808,95.0375727 C612.861399,96.9584346 612.781866,98.428568 613.041395,99.4437604 C613.300924,100.458953 614.112998,101.11609 615.477617,101.410959 L619.985884,102.392452 L617.537104,113.799676 C616.180857,113.888137 614.807865,113.947111 613.422316,113.985023 C612.032581,114.014509 610.751681,114.001872 609.571243,113.934474 C608.394991,113.871287 607.260599,113.723853 606.168067,113.483745" id="Fill-28" fill="#DFB956"></path>
                <path d="M622,114.469515 L652.061182,18 L667.392971,22.7749734 L656.968191,56.2165121 L657.637519,56.425574 C659.252272,54.6861791 660.925592,53.381633 662.66166,52.5077543 C664.393546,51.6380569 666.225831,51.1572145 668.150148,51.0735898 C670.078648,50.9941463 672.107548,51.2826517 674.24103,51.9474685 C677.441254,52.942603 679.838284,54.3976737 681.436304,56.3084993 C683.034324,58.2193249 683.887716,60.648624 683.988116,63.604759 C684.092698,66.560894 683.507036,70.0814961 682.23113,74.1665653 L665.460287,128 L650.128498,123.225027 L665.48957,73.9240535 C665.849334,72.7700319 666.087782,71.6996351 666.200731,70.712863 C666.31368,69.7219097 666.309497,68.7978562 666.188181,67.93234 C666.066865,67.0668238 665.740568,66.3267447 665.196739,65.7204653 C664.65291,65.1141858 663.849717,64.6417059 662.782976,64.3113882 C661.092924,63.7845522 659.499087,63.9727079 658.001466,64.871674 C656.503845,65.7706401 655.094074,67.3260605 653.767968,69.5462977 C652.441862,71.7623537 651.211973,74.6934012 650.078299,78.3352592 L637.331789,119.244488 L622,114.469515 Z" id="Fill-30" fill="#DFB956"></path>
                <path d="M723.752933,100.471518 L731.976714,104.550238 C735.301133,106.195223 738.318043,106.072903 741.0316,104.179061 C743.741002,102.289437 746.134584,99.1892732 748.204034,94.8870044 C749.824689,91.5168938 750.82617,88.6444967 751.196011,86.2655952 C751.565853,83.8909115 751.245878,81.8789682 750.244396,80.2297651 C749.234604,78.58478 747.439418,77.1169471 744.867149,75.8431381 L737.387206,72.1355947 L723.752933,100.471518 Z M686,136.90583 L727.821191,50 L755.488667,63.7166452 C761.219135,66.5595169 765.179349,69.9296275 767.365154,73.8354127 C769.55096,77.7411979 770.377909,82.1193891 769.841846,86.9699862 C769.305784,91.8248013 767.722529,96.9917418 765.083772,102.475026 C762.366059,108.122808 759.149684,112.72033 755.438801,116.259157 C751.727918,119.802202 747.61395,121.991298 743.09274,122.830662 C738.57153,123.670026 733.738656,122.809572 728.585807,120.257737 L716.996051,114.512942 L702.327053,145 L686,136.90583 Z" id="Fill-32" fill="#DFB956"></path>
                <path d="M739,163.573296 L777.461908,101 L788.940091,108.105852 L784.583712,117.050865 L785.058499,117.343459 C787.082591,115.646415 789.015057,114.359002 790.864228,113.47704 C792.709233,112.599258 794.475107,112.164547 796.16185,112.168727 C797.844429,112.172907 799.435382,112.636877 800.934709,113.568998 C801.484462,113.907571 802.034215,114.304663 802.579804,114.747733 C803.121228,115.194984 803.596015,115.704933 804,116.285941 L794.949894,131.007594 L790.339463,128.152714 C788.994233,127.320911 787.636509,126.91546 786.262126,126.940539 C784.887743,126.965619 783.4967,127.412869 782.084834,128.290651 C780.672967,129.164253 779.190299,130.514365 777.63683,132.336807 C776.079195,134.159249 774.450759,136.458201 772.751522,139.225303 L752.606395,172 L739,163.573296 Z" id="Fill-34" fill="#DFB956"></path>
                <path d="M803.107437,153.616402 L815.471052,162.930801 C817.578865,160.085202 819.295109,157.613691 820.615616,155.51627 C821.936123,153.418849 822.848398,151.59464 823.356606,150.052047 C823.860649,148.505252 823.923133,147.181229 823.527397,146.067368 C823.135827,144.953507 822.348522,143.94893 821.157149,143.053638 C819.378421,141.712802 817.570534,141.258851 815.75015,141.691786 C813.921435,142.128924 811.99691,143.360476 809.972409,145.394848 C807.947909,147.42922 805.656808,150.169738 803.107437,153.616402 M782.80828,194.173547 C778.130267,190.651225 775.122676,186.780033 773.789672,182.564175 C772.456667,178.348317 772.810747,173.451532 774.856075,167.873821 C776.901404,162.29611 780.642147,155.835717 786.078306,148.488439 C791.735243,140.846933 796.946457,135.290238 801.711948,131.818355 C806.477438,128.346472 811.101297,126.753441 815.579359,127.030855 C820.053255,127.312473 824.631292,129.216544 829.31347,132.738867 C833.62074,135.983774 836.515859,139.539723 837.994661,143.398305 C839.477628,147.256887 839.319334,151.809005 837.523943,157.050456 C835.728553,162.291907 832.058625,168.659829 826.51416,176.154221 L823.269128,180.538209 L797.533812,161.148623 C794.484565,165.267807 792.135145,168.756503 790.493883,171.602103 C788.848456,174.447702 788.03199,176.835147 788.044487,178.772845 C788.06115,180.710542 788.956762,182.349809 790.739656,183.694849 C791.781065,184.476653 792.843303,184.955823 793.926369,185.13236 C795.013601,185.308896 796.146655,185.140766 797.333862,184.632173 C798.516903,184.12358 799.795754,183.219882 801.166249,181.916875 C802.532579,180.613867 804.032209,178.940975 805.656808,176.898196 L818.470312,186.553058 C815.621015,190.24351 812.767553,193.198394 809.909925,195.421912 C807.052297,197.645431 804.157178,199.053519 801.228734,199.65038 C798.30029,200.243038 795.296864,200.083315 792.218457,199.162803 C789.14005,198.246495 786.003324,196.582009 782.80828,194.173547" id="Fill-36" fill="#DFB956"></path>
                <path d="M820.61124,226.27358 C816.418936,222.433621 813.96007,218.315222 813.230423,213.926696 C812.500777,209.538171 813.504568,204.738221 816.233361,199.539314 C818.957937,194.336252 823.331598,188.551377 829.333256,182.18469 C835.596406,175.547877 841.311267,170.743771 846.482056,167.780685 C851.648628,164.813443 856.452485,163.591638 860.88941,164.119424 C865.322118,164.647211 869.56925,166.76667 873.626591,170.481955 C876.650617,173.253874 878.860644,176.034105 880.26089,178.830959 C881.656919,181.627813 882.213643,184.503627 881.926846,187.458401 C881.635831,190.413176 880.471771,193.579896 878.438883,196.954406 C876.405995,200.333072 873.508497,204.023423 869.737955,208.017148 L857.983477,197.249468 C860.855669,194.203266 863.02352,191.672383 864.474378,189.65682 C865.925236,187.641257 866.6591,185.912444 866.671753,184.474537 C866.684405,183.032474 865.971629,181.652748 864.529207,180.331203 C863.356712,179.259007 861.960683,178.739531 860.336903,178.764466 C858.708906,178.789401 856.701324,179.666275 854.305722,181.386777 C851.914337,183.107278 848.92827,185.862574 845.351737,189.65682 L837.97092,197.482193 C835.541577,200.054634 833.424337,202.535647 831.623418,204.921076 C829.818281,207.310662 828.721703,209.525703 828.333683,211.566202 C827.945663,213.610856 828.506605,215.323045 830.016509,216.711083 C831.39145,217.966135 832.825437,218.585349 834.318471,218.568726 C835.811504,218.543791 837.544942,217.795747 839.514565,216.316282 C841.484189,214.840973 843.938838,212.542815 846.882729,209.425964 L858.426326,220.006633 C855.233596,223.393611 852.049301,226.157218 848.873441,228.297455 C845.701798,230.441849 842.534374,231.863132 839.371167,232.565463 C836.20796,233.267793 833.082711,233.118184 829.991203,232.120792 C826.899695,231.119244 823.774447,229.170174 820.61124,226.27358" id="Fill-38" fill="#DFB956"></path>
                <path d="M905.71598,188.547523 L917.191209,178 L928,189.812725 L916.520606,200.364424 L905.71598,188.547523 Z M843,246.187275 L897.006468,196.552116 L907.806929,208.369017 L853.804626,258 L843,246.187275 Z" id="Fill-40" fill="#DFB956"></path>
                <path d="M869.347669,280.373941 C866.64056,276.922589 864.826043,273.777743 863.904117,270.935206 C862.978001,268.101066 862.764282,265.443273 863.258769,262.974422 C863.753257,260.50977 864.826043,258.20467 866.477128,256.075916 C868.124022,253.947162 870.16064,251.927575 872.578599,250.021354 C872.947369,249.73584 873.420904,249.391545 873.999202,248.996864 C874.577501,248.597986 875.151609,248.236895 875.721527,247.905196 L884.62649,259.254351 C884.052382,259.586051 883.566276,259.909352 883.163981,260.228456 C882.761686,260.54336 882.338438,260.875059 881.898428,261.223553 C880.507159,262.319421 879.400848,263.482468 878.592068,264.716893 C877.779097,265.951319 877.376803,267.248725 877.380993,268.613311 C877.380993,269.977896 877.900624,271.321489 878.939885,272.644087 C879.974956,273.966686 881.085458,274.814828 882.267199,275.188515 C883.45313,275.562202 884.731254,275.537009 886.114143,275.10454 C887.492841,274.672072 888.95535,273.849121 890.493289,272.63569 C892.324569,271.191328 893.43507,269.579018 893.812221,267.794559 C894.193563,266.010101 894.201944,264.129072 893.841555,262.159869 C893.476976,260.186468 893.028585,258.099702 892.496382,255.907967 C892.001895,253.917771 891.603791,251.856197 891.293688,249.727443 C890.983586,247.590291 891.000348,245.381762 891.339785,243.093456 C891.679221,240.805151 892.538288,238.495852 893.912795,236.169758 C895.287302,233.839465 897.441256,231.51757 900.374655,229.208271 C903.232625,226.957754 906.052879,225.450411 908.831227,224.686243 C911.613766,223.922075 914.299922,223.796113 916.898076,224.308358 C919.492039,224.820602 921.926761,225.845091 924.19805,227.381825 C926.46934,228.918558 928.560435,230.900357 930.458763,233.323022 C932.361282,235.749885 933.790267,238.214537 934.754098,240.725375 C935.713739,243.236213 936.120224,245.679871 935.969364,248.05635 C935.814313,250.432829 935.148012,252.683346 933.966271,254.803702 C932.78453,256.924058 931.016109,258.905857 928.67358,260.753296 C928.0869,261.219355 927.42898,261.702208 926.704012,262.214453 C925.979043,262.726697 925.291789,263.175961 924.650632,263.566442 L915.833671,252.326454 L918.364776,250.332059 C919.831476,249.17741 920.845594,248.052151 921.40713,246.956284 C921.972857,245.860416 922.153052,244.768748 921.951904,243.677079 C921.746566,242.589609 921.273032,241.56512 920.52292,240.612009 C919.890144,239.801655 919.198699,239.188641 918.452778,238.768769 C917.706856,238.344698 916.902267,238.147357 916.034818,238.176748 C915.16737,238.20614 914.278969,238.399281 913.373806,238.756173 C912.468643,239.113064 911.538336,239.667296 910.587076,240.414669 C909.049137,241.628101 908.110449,243.08086 907.775203,244.768748 C907.439958,246.460834 907.502816,248.278882 907.96797,250.23129 C908.433123,252.183697 908.898276,254.220079 909.380192,256.340436 C910.000396,258.343228 910.524218,260.488777 910.951656,262.768685 C911.370713,265.048593 911.446143,267.336898 911.173756,269.629402 C910.897179,271.926105 910.105161,274.243802 908.797703,276.582492 C907.490244,278.916983 905.365625,281.243077 902.436416,283.552376 C899.134246,286.147189 895.949412,287.944243 892.877724,288.939341 C889.801845,289.934439 886.860064,290.22835 884.052382,289.825273 C881.244699,289.422195 878.625593,288.422898 876.195062,286.83578 C873.76034,285.244463 871.476479,283.090517 869.347669,280.373941" id="Fill-42" fill="#DFB956"></path>
                <path d="M958.292042,253.753156 L971.154483,245 L980,258.420103 L967.133417,267.17326 L958.292042,253.753156 Z M888,301.579897 L948.531329,260.39798 L957.372704,273.818083 L896.845517,315 L888,301.579897 Z" id="Fill-44" fill="#DFB956"></path>
                <path d="M923.1261,336.307288 C924.121112,338.113989 925.450582,339.226782 927.11451,339.641435 C928.774257,340.051856 930.99004,339.7726 933.757679,338.807898 C936.529498,337.843196 940.06639,336.146504 944.376715,333.726286 L953.524138,328.576975 C957.834463,326.156757 961.124692,324.007332 963.399005,322.137163 C965.669138,320.266995 967.073861,318.506836 967.604813,316.860918 C968.139945,315.215 967.905825,313.48446 966.914994,311.677758 C965.965969,309.951448 964.644861,308.85558 962.96003,308.407078 C961.275198,307.954345 959.059415,308.22937 956.31268,309.236384 C953.565945,310.243398 950.037414,311.961245 945.73127,314.381464 L936.583848,319.530774 C932.273522,321.950993 928.96657,324.079262 926.675534,325.907119 C924.380317,327.739207 922.979775,329.495135 922.469726,331.183364 C921.959678,332.871593 922.177076,334.576747 923.1261,336.307288 M911.420075,342.89519 C908.706786,337.957437 907.611436,333.239703 908.121485,328.750452 C908.635714,324.261201 910.930931,319.822724 915.011316,315.422327 C919.087521,311.030392 925.070136,306.61307 932.959161,302.178824 C940.927619,297.698035 947.834173,294.863164 953.674644,293.674211 C959.515114,292.49372 964.456728,292.86183 968.495307,294.791235 C972.533885,296.720639 975.907729,300.152103 978.621018,305.089856 C981.28832,309.947217 982.375308,314.639564 981.886163,319.171126 C981.392838,323.702689 979.118524,328.183478 975.063223,332.621955 C971.007921,337.056202 964.996042,341.515835 957.023403,346.000855 C949.138559,350.435101 942.261269,353.227661 936.399896,354.370071 C930.534341,355.512482 925.571823,355.10206 921.512341,353.130344 C917.448678,351.158628 914.083196,347.74832 911.420075,342.89519" id="Fill-46" fill="#DFB956"></path>
                <path d="M926,367.228021 L994.00401,339 L999.342424,351.686798 L991.514986,356.139036 L991.73288,356.650835 C994.44818,356.625869 996.803116,357.004518 998.801878,357.782619 C1000.79645,358.56072 1002.50608,359.680021 1003.93078,361.148844 C1005.35547,362.613505 1006.52037,364.411044 1007.41709,366.545622 C1008.78312,369.79534 1009.265,372.678892 1008.86273,375.204601 C1008.46047,377.73031 1007.15729,379.977234 1004.9574,381.945372 C1002.75331,383.913511 999.673456,385.719372 995.713643,387.362955 L943.582404,409 L937.380793,394.266005 L985.124813,374.447304 C986.239427,373.985437 987.215761,373.477798 988.049626,372.932711 C988.879301,372.383463 989.587458,371.788444 990.178287,371.143494 C990.764926,370.502705 991.116909,369.778696 991.234237,368.975629 C991.351565,368.176722 991.196525,367.261309 990.764926,366.23771 C990.077721,364.614932 988.912823,363.516436 987.257664,362.950544 C985.602504,362.380491 983.498985,362.301433 980.942916,362.713369 C978.382657,363.116983 975.344706,364.057362 971.816492,365.517862 L932.20161,381.966177 L926,367.228021 Z" id="Fill-48" fill="#DFB956"></path>
                <path d="M53.746368,908.693766 C49.1550048,902.670486 46.9071933,896.784005 47.0029334,891.034322 C47.0986735,885.288785 49.4588757,879.423031 54.0877024,873.43706 C58.7082039,867.455235 65.4849394,861.087886 74.4137463,854.33916 C87.9131034,844.133163 99.4185683,838.706822 108.930141,838.064284 C118.437552,837.4176 126.662877,841.650063 133.610279,850.761672 C137.356632,855.682273 139.462915,860.582147 139.91664,865.444711 C140.370364,870.315567 138.971726,875.30664 135.724887,880.430366 C132.473886,885.549946 127.199854,890.868506 119.894466,896.390191 L109.308939,882.50307 C113.221796,879.547394 116.347919,876.749242 118.695634,874.104471 C121.043348,871.467991 122.396197,868.931001 122.76667,866.514227 C123.128817,864.093308 122.387872,861.672389 120.539672,859.247325 C118.695634,856.82226 116.393708,855.408676 113.638058,854.99828 C110.88657,854.587885 107.639731,855.217987 103.910029,856.880296 C100.176164,858.542605 95.7679559,861.299302 90.677079,865.146242 L80.1623162,873.092991 C75.1463664,876.886041 71.3167615,880.330876 68.6735017,883.427497 C66.0344044,886.524117 64.5650017,889.401031 64.2652935,892.058239 C63.9655853,894.719591 64.7398315,897.256582 66.5880321,899.681646 C68.3821187,902.036238 70.5008892,903.441532 72.9485062,903.909963 C75.3961232,904.374249 78.1850746,903.918254 81.3195229,902.533688 C84.4498086,901.149121 88.046307,898.927182 92.1048556,895.855433 L102.436463,909.415067 C95.2018404,914.878716 88.6373982,918.394023 82.7389742,919.960988 C76.8363876,921.523807 71.5124044,921.324827 66.7545366,919.355758 C62.0049941,917.394979 57.6633878,913.838218 53.746368,908.693766" id="Fill-50" fill="#DFB956"></path>
                <path d="M84,944.266199 L137.43776,894 L146.632381,903.900918 L140.095093,911.387284 L140.477682,911.793197 C142.868866,910.688445 145.068755,909.956129 147.07735,909.596247 C149.085944,909.236366 150.899085,909.282397 152.52509,909.730157 C154.146937,910.177916 155.556695,911.052511 156.758525,912.345572 C157.199335,912.81844 157.62351,913.345707 158.031051,913.919006 C158.434433,914.49649 158.762961,915.111636 159,915.781183 L146.428611,927.611231 L142.731633,923.62743 C141.654561,922.472462 140.452731,921.723407 139.121985,921.380265 C137.791239,921.037122 136.331577,921.108261 134.747158,921.576944 C133.158581,922.049811 131.378708,922.962068 129.399224,924.30953 C127.423898,925.661177 125.253119,927.448029 122.886887,929.674271 L94.8996396,956 L84,944.266199 Z" id="Fill-52" fill="#DFB956"></path>
                <path d="M151.445956,949.423799 L163.042997,959.770493 C165.413686,957.138843 167.359837,954.837718 168.873042,952.875486 C170.386248,950.913255 171.470712,949.189503 172.118028,947.708416 C172.765344,946.21896 172.937681,944.909411 172.643447,943.7714 C172.349212,942.63339 171.647253,941.566504 170.533365,940.574929 C168.860432,939.08129 167.086619,938.470446 165.216128,938.734029 C163.341435,939.00598 161.298607,940.05613 159.079238,941.888662 C156.864073,943.725378 154.316844,946.235696 151.445956,949.423799 M127.423815,987.814928 C123.035519,983.898832 120.357985,979.794462 119.395418,975.493451 C118.432851,971.196623 119.227284,966.372629 121.782921,961.025652 C124.334354,955.678675 128.67221,949.607889 134.792286,942.813296 C141.156157,935.742567 146.889526,930.701012 151.992392,927.68863 C157.091054,924.676249 161.878669,923.508951 166.355236,924.186737 C170.8276,924.868707 175.262133,927.165647 179.646226,931.07756 C183.685645,934.68405 186.279112,938.466262 187.426626,942.424196 C188.569937,946.382131 188.002485,950.883968 185.732676,955.917155 C183.458664,960.950342 179.200671,966.937451 172.958698,973.870112 L169.305987,977.924275 L145.170356,956.389932 C141.736219,960.205615 139.067093,963.448109 137.162975,966.121597 C135.254655,968.79927 134.220631,971.09621 134.065107,973.016604 C133.90538,974.936997 134.657779,976.644013 136.330712,978.133468 C137.305889,979.003712 138.331507,979.572717 139.407564,979.844668 C140.479418,980.116619 141.635339,980.053861 142.871124,979.660578 C144.106908,979.258927 145.472997,978.476545 146.969389,977.309247 C148.457375,976.141949 150.113495,974.614839 151.933545,972.736285 L163.946717,983.455342 C160.752171,986.856823 157.62488,989.534495 154.552231,991.484176 C151.479583,993.429672 148.444765,994.567683 145.447777,994.894024 C142.450789,995.220365 139.449597,994.793611 136.435796,993.605394 C133.421995,992.412993 130.420803,990.484232 127.423815,987.814928" id="Fill-54" fill="#DFB956"></path>
                <path d="M182.246207,1016.20717 C183.160845,1016.84973 184.244081,1017.18138 185.491698,1017.2104 C186.739316,1017.23527 188.054372,1016.9741 189.441082,1016.41445 C190.823578,1015.85479 192.206073,1014.98422 193.584353,1013.79859 C194.966848,1012.6171 196.336698,1011.08324 197.698119,1009.20944 L202.031061,1003.23567 C198.595898,1000.8271 195.691815,999.467348 193.318813,999.164721 C190.950025,998.853803 188.918432,999.272506 187.228247,1000.40839 C185.538062,1001.54842 184.01226,1003.05327 182.650839,1004.93121 C181.453801,1006.58529 180.636106,1008.10672 180.201968,1009.49963 C179.763616,1010.89254 179.708822,1012.15694 180.037586,1013.29698 C180.362135,1014.43286 181.099747,1015.40293 182.246207,1016.20717 M169.129362,1023.32097 C166.992396,1021.82027 165.327501,1020.13717 164.143107,1018.2841 C162.950283,1016.43103 162.254821,1014.40799 162.052504,1012.22742 C161.854403,1010.04685 162.216886,1007.72533 163.139955,1005.25457 C164.067238,1002.7921 165.483453,1000.24257 167.392813,997.618422 C169.571929,994.612883 172.0208,992.191869 174.730997,990.359526 C177.445408,988.523037 180.463294,987.38715 183.784654,986.939429 C187.101799,986.495852 190.777213,986.94772 194.806681,988.307467 C198.836149,989.66307 203.177521,991.972153 207.835012,995.238864 L213.230115,987.809999 C214.317565,986.309302 215.055177,984.899807 215.438735,983.581515 C215.813864,982.263223 215.805434,981.007115 215.405016,979.817336 C215.000383,978.627557 214.224837,977.628474 213.078378,976.824233 C211.476707,975.700783 209.993053,975.195023 208.640062,975.323536 C207.278642,975.443757 206.043669,975.995118 204.935144,976.969328 C203.822404,977.947683 202.747598,979.149899 201.714942,980.57183 L200.97733,981.587495 L188.496939,972.823756 C188.640247,972.471382 188.834133,972.123154 189.078599,971.787363 C189.323064,971.447426 189.58439,971.090907 189.85836,970.71366 C192.800377,966.663436 196.012149,963.902485 199.493677,962.439098 C202.975204,960.975711 206.600039,960.627483 210.359752,961.398559 C214.123679,962.169635 217.874962,963.86932 221.613599,966.497613 C225.048763,968.910336 227.721025,971.575939 229.630385,974.502712 C231.535531,977.429486 232.294218,980.795691 231.898015,984.59718 C231.497597,988.39867 229.503938,992.776394 225.904392,997.730353 L205.061592,1026.44673 C204.189102,1027.64895 203.76761,1028.73923 203.801329,1029.73002 C203.835049,1030.71667 204.382989,1031.58309 205.45358,1032.33759 L207.974104,1034.09946 L201.51684,1043 C199.85616,1042.74297 198.140686,1042.24551 196.374633,1041.51174 C194.60015,1040.77797 192.952114,1039.87424 191.426312,1038.80468 C189.59282,1037.51955 188.281978,1036.1142 187.481143,1034.59278 C186.684522,1033.06721 186.368403,1031.48775 186.524355,1029.83781 C186.680307,1028.19202 187.202958,1026.60426 188.083877,1025.0704 L187.514862,1024.66413 C185.715089,1025.55543 183.831018,1026.16069 181.871078,1026.48404 C179.906924,1026.8074 177.8669,1026.76179 175.746793,1026.34724 C173.626686,1025.93683 171.422281,1024.92945 169.129362,1023.32097" id="Fill-56" fill="#DFB956"></path>
                <path d="M220.815245,1057.16927 C217.898032,1055.47875 215.943373,1053.5967 214.947046,1051.51478 C213.95494,1049.43702 213.739632,1047.13858 214.313787,1044.61946 C214.88372,1042.1045 216.027808,1039.40634 217.737607,1036.53329 L240.999317,997.459833 L236.135889,994.645078 L242.983528,983.144558 L248.210025,986.167504 L261.702661,969 L273,975.541389 L261.9433,994.116271 L268.98936,998.200996 L262.141721,1009.70568 L255.09566,1005.62512 L233.404432,1042.0587 C232.408105,1043.73256 231.867724,1045.09414 231.800176,1046.12677 C231.728407,1047.1594 232.302561,1048.02964 233.518419,1048.73333 L237.524836,1051.05259 L231.605977,1061 C230.280355,1060.66273 228.946289,1060.29215 227.608002,1059.89242 C226.265493,1059.49269 225.041193,1059.07631 223.935101,1058.6516 C222.824787,1058.22688 221.786242,1057.73139 220.815245,1057.16927" id="Fill-58" fill="#DFB956"></path>
                <path d="M273.733861,1035.48417 L287.912523,1042.09884 C289.44558,1038.91446 290.661015,1036.1719 291.558827,1033.87114 C292.45664,1031.57456 293.007185,1029.61975 293.206228,1028.01923 C293.405272,1026.41453 293.197759,1025.11827 292.583689,1024.10961 C291.973854,1023.10928 290.982872,1022.28818 289.623448,1021.65464 C287.582195,1020.70016 285.689166,1020.6168 283.9613,1021.39622 C282.224965,1022.17981 280.552154,1023.7595 278.938632,1026.13527 C277.325111,1028.51522 275.588775,1031.63291 273.733861,1035.48417 M261.575277,1078.92341 C256.213812,1076.42259 252.444693,1073.25489 250.276391,1069.42446 C248.108089,1065.58987 247.489784,1060.75495 248.417242,1054.92804 C249.344699,1049.1053 251.788273,1042.08217 255.739496,1033.86698 C259.860116,1025.32251 263.942622,1018.89123 268.003953,1014.56898 C272.06105,1010.25507 276.355304,1007.79176 280.874011,1007.17906 C285.388484,1006.57053 290.330687,1007.5125 295.696388,1010.01332 C300.634357,1012.31408 304.225607,1015.20252 306.470138,1018.65782 C308.718904,1022.11729 309.468493,1026.56875 308.718904,1032.02054 C307.969315,1037.47232 305.580795,1044.38709 301.544874,1052.76484 L299.185999,1057.67061 L269.676764,1043.90777 C267.457643,1048.51761 265.810242,1052.36887 264.738796,1055.46155 C263.667349,1058.55423 263.328552,1061.03838 263.730874,1062.91816 C264.128961,1064.79795 265.352865,1066.21508 267.394118,1067.16956 C268.588378,1067.71974 269.740289,1067.98232 270.85832,1067.93648 C271.972115,1067.89063 273.068971,1067.50717 274.153122,1066.77776 C275.233038,1066.04836 276.321424,1064.91882 277.430985,1063.38082 C278.532076,1061.84281 279.692456,1059.92135 280.907891,1057.61643 L295.598983,1064.4645 C293.498441,1068.61586 291.241205,1072.05449 288.83151,1074.78039 C286.42605,1077.50628 283.821547,1079.44858 281.022235,1080.60313 C278.222923,1081.76601 275.199158,1082.19948 271.946706,1081.91606 C268.694253,1081.62846 265.238521,1080.6323 261.575277,1078.92341" id="Fill-60" fill="#DFB956"></path>
                <path d="M324.592318,1088.10257 C326.451744,1088.73955 328.117656,1088.56774 329.590053,1087.59549 C331.066657,1086.61906 332.509605,1084.87154 333.927313,1082.34874 C335.336607,1079.82594 336.733281,1076.58234 338.100506,1072.61375 L341.020059,1064.14435 C342.118046,1060.97199 342.904727,1058.18518 343.384307,1055.7881 C343.863888,1053.38683 344.065817,1051.35853 343.9943,1049.71159 C343.918577,1048.05626 343.518927,1046.71524 342.791142,1045.67176 C342.054944,1044.63665 341.070541,1043.90328 339.833728,1043.48002 C338.243539,1042.93523 336.72066,1043.10705 335.277711,1043.99129 C333.834763,1044.87971 332.433882,1046.56857 331.079277,1049.06203 C329.724672,1051.5513 328.302757,1054.96672 326.809326,1059.28314 L323.889774,1067.75254 C322.429998,1071.98096 321.466629,1075.49695 320.999669,1078.29634 C320.528502,1081.09153 320.587398,1083.28327 321.180564,1084.86735 C321.769522,1086.44724 322.909578,1087.52844 324.592318,1088.10257 M314.268713,1099.95386 C310.196484,1098.55836 307.348448,1096.12775 305.724604,1092.66624 C304.096554,1089.20053 303.62118,1084.54886 304.298483,1078.7196 C304.971578,1072.88615 306.801557,1065.64881 309.780006,1057.0034 C312.699558,1048.54238 315.619111,1041.87079 318.538663,1037.00539 C321.449802,1032.1358 324.57549,1028.88801 327.907314,1027.26621 C331.23493,1025.6486 334.848613,1025.50193 338.744154,1026.83876 C341.0453,1027.62242 342.883693,1028.67429 344.267746,1029.98598 C345.643385,1031.29347 346.665649,1032.85241 347.330331,1034.65441 C347.990806,1036.46479 348.344181,1038.45538 348.38625,1040.63873 L349.050932,1040.86922 L360.729142,1007 L376,1012.22999 L342.96783,1108 L330.486112,1103.72968 L332.345538,1094.89988 L331.680856,1094.66939 C329.762534,1097.07485 327.335182,1098.87685 324.394596,1100.08796 C321.449802,1101.29907 318.07591,1101.25717 314.268713,1099.95386" id="Fill-62" fill="#DFB956"></path>
                <path d="M386.596936,1119.85143 L385,1045 L401.293735,1047.71898 L400.324761,1082.6516 C400.291491,1083.97344 400.2,1085.67594 400.04197,1087.77165 C399.88394,1089.87154 399.755021,1091.94633 399.651053,1094.00438 C399.542927,1096.06244 399.418167,1097.83605 399.264295,1099.32104 L400.224952,1099.47999 C400.678249,1097.85697 401.148181,1096.00388 401.634747,1093.91236 C402.117155,1091.82502 402.632832,1089.83389 403.181778,1087.94315 C403.726566,1086.05241 404.192339,1084.47959 404.591573,1083.22467 L414.851053,1049.97782 L432.654391,1052.94779 L431.431737,1087.69635 C431.369357,1089.19806 431.290342,1090.98004 431.186375,1093.03392 C431.078249,1095.09198 430.957647,1097.12494 430.812093,1099.12862 C430.670698,1101.1323 430.516826,1102.92264 430.350479,1104.49965 L431.448372,1104.6837 C431.793543,1103.14016 432.255157,1101.34981 432.820739,1099.32522 C433.38632,1097.29226 433.926949,1095.3095 434.434309,1093.36438 C434.941669,1091.41926 435.394966,1089.82134 435.790041,1088.56642 L446.207551,1055.20663 L461,1057.67045 L435.482298,1128 L418.094829,1125.10115 L418.905773,1090.28147 C418.980629,1088.69192 419.063803,1086.88902 419.163611,1084.87698 C419.259261,1082.86075 419.384022,1080.83197 419.533735,1078.78228 C419.683447,1076.7284 419.779097,1075.00081 419.824843,1073.59112 L418.868345,1073.43216 C418.531491,1074.88786 418.057401,1076.62383 417.446074,1078.64424 C416.830588,1080.66465 416.273324,1082.6265 415.774282,1084.5256 C415.271081,1086.42052 414.809466,1088.08956 414.38528,1089.52853 L403.988564,1122.75028 L386.596936,1119.85143 Z" id="Fill-64" fill="#DFB956"></path>
                <path d="M466.395437,1043.62272 L467.384311,1028 L484,1028.9759 L483.015463,1044.6028 L466.395437,1043.62272 Z M461,1129.01992 L465.649444,1055.48425 L482.265133,1056.46015 L477.615689,1130 L461,1129.01992 Z" id="Fill-66" fill="#DFB956"></path>
                <path d="M505.650494,1131.99672 C502.309746,1131.94237 499.698874,1131.24831 497.817878,1129.91454 C495.936883,1128.58496 494.618935,1126.67839 493.872376,1124.19902 C493.125817,1121.72382 492.779647,1118.80961 492.829696,1115.46057 L493.567913,1069.9705 L488,1069.88269 L488.216878,1056.48235 L494.201863,1056.5827 L497.334075,1035 L510.279994,1035.21323 L509.929654,1056.83775 L518,1056.97154 L517.787293,1070.3677 L509.712776,1070.2339 L509.028778,1112.65089 C508.995412,1114.60764 509.203948,1116.05429 509.650215,1116.98667 C510.100653,1117.92741 511.022383,1118.40823 512.415404,1118.42914 L517.007368,1118.50021 L516.819686,1130.08597 C515.51425,1130.43718 514.18379,1130.7633 512.836647,1131.06434 C511.485333,1131.37374 510.225775,1131.6037 509.066314,1131.77094 C507.902683,1131.93818 506.764076,1132.01762 505.650494,1131.99672" id="Fill-68" fill="#DFB956"></path>
                <path d="M530.487062,1131 L522,1030.37092 L537.705377,1029 L540.645259,1063.8833 L541.326852,1063.82896 C542.148048,1061.60539 543.186861,1059.76635 544.439185,1058.30347 C545.691509,1056.84478 547.177874,1055.70792 548.89828,1054.90543 C550.618686,1054.10293 552.569027,1053.60138 554.757515,1053.41329 C558.029981,1053.1249 560.752247,1053.56794 562.911993,1054.72988 C565.075844,1055.89182 566.751085,1057.82282 567.941819,1060.52287 C569.132553,1063.21455 569.904478,1066.6962 570.265804,1070.95943 L575,1127.11293 L559.298729,1128.48386 L554.958708,1077.05753 C554.860164,1075.85379 554.675395,1074.77127 554.412612,1073.81413 C554.145724,1072.85699 553.800821,1072.00434 553.369693,1071.24365 C552.938565,1070.48713 552.367834,1069.93542 551.649287,1069.57597 C550.930741,1069.2207 550.023319,1069.08695 548.931128,1069.18308 C547.20251,1069.33355 545.822901,1070.11097 544.796405,1071.50697 C543.765804,1072.90297 543.063681,1074.87576 542.681825,1077.42952 C542.299969,1079.98328 542.271227,1083.15981 542.591494,1086.95911 L546.188333,1129.62908 L530.487062,1131 Z" id="Fill-70" fill="#DFB956"></path>
                <path d="M617.948959,1068.74017 L626.958949,1066.5611 C630.599136,1065.6836 632.875831,1063.64728 633.784826,1060.44376 C634.693821,1057.25283 634.588613,1053.33135 633.464995,1048.70451 C632.585458,1045.06853 631.533381,1042.22609 630.312971,1040.16038 C629.088353,1038.10307 627.560737,1036.76792 625.725914,1036.15073 C623.891091,1035.53774 621.559688,1035.57132 618.740121,1036.2515 L610.550751,1038.22903 L617.948959,1068.74017 Z M611.691203,1121 L589,1027.42606 L619.304034,1020.11212 C625.58704,1018.59643 630.817968,1018.63002 635.009444,1020.21289 C639.20092,1021.79576 642.630692,1024.62141 645.302968,1028.68564 C647.971036,1032.75407 650.0289,1037.7336 651.455516,1043.63681 C652.932633,1049.72477 653.349255,1055.31729 652.709592,1060.42277 C652.069929,1065.52405 650.25194,1069.86119 647.26404,1073.4132 C644.271933,1076.9736 639.954207,1079.43398 634.310865,1080.79432 L621.614396,1083.85929 L629.576517,1116.68385 L611.691203,1121 Z" id="Fill-72" fill="#DFB956"></path>
                <path d="M693.312191,1099.76438 C688.476077,1101.54216 684.419982,1101.40093 681.139688,1099.34485 C677.859395,1097.29293 675.076627,1093.23893 672.787168,1087.17454 L653,1034.8131 L668.166086,1029.25131 L686.334189,1077.32614 C686.760037,1078.45179 687.232264,1079.43621 687.750871,1080.28356 C688.269478,1081.12676 688.842896,1081.85366 689.475344,1082.4601 C690.103575,1083.06654 690.837214,1083.41545 691.672044,1083.50267 C692.506874,1083.5899 693.40495,1083.45698 694.374702,1083.10392 C696.040147,1082.49333 697.229148,1081.38845 697.933272,1079.80174 C698.628964,1078.21503 698.789184,1076.11326 698.401283,1073.49228 C698.009166,1070.87545 697.161687,1067.83495 695.854629,1064.36662 L680.827681,1024.60748 L696.124473,1019 L722,1087.46945 L708.811366,1092.30435 L704.700458,1084.20049 L704.169203,1084.39156 C704.00055,1087.11639 703.490376,1089.47568 702.63868,1091.4653 C701.786984,1093.45077 700.593767,1095.1247 699.050596,1096.47881 C697.511641,1097.82876 695.597434,1098.92948 693.312191,1099.76438" id="Fill-74" fill="#DFB956"></path>
                <path d="M735.623702,1081 L704,1015.08708 L716.128444,1009.25938 L721.259868,1017.71828 L721.762623,1017.48135 C721.430223,1014.87093 721.396983,1012.55149 721.658748,1010.53133 C721.916358,1008.51117 722.502213,1006.79029 723.416313,1005.37701 C724.326258,1003.96789 725.576913,1002.87883 727.159967,1002.114 C727.741667,1001.8355 728.364917,1001.59025 729.033872,1001.3741 C729.698672,1001.1538 730.380092,1001.03325 731.086442,1001 L738.523891,1016.50868 L733.650077,1018.85306 C732.233222,1019.53476 731.161232,1020.45755 730.442417,1021.62558 C729.719447,1022.79362 729.345497,1024.20274 729.316412,1025.85296 C729.291482,1027.51148 729.619727,1029.48176 730.309457,1031.76795 C730.995032,1034.05414 732.037937,1036.65624 733.438172,1039.57425 L750,1074.09571 L735.623702,1081 Z" id="Fill-76" fill="#DFB956"></path>
                <path d="M786.322471,1039.32037 C787.845443,1038.40814 788.74997,1037.13437 789.027639,1035.49907 C789.301101,1033.86377 788.918254,1031.7198 787.883307,1029.07137 C786.844152,1026.42714 785.148689,1023.13132 782.79271,1019.19651 L778.181723,1011.49084 C775.880437,1007.6359 773.802127,1004.62174 771.963622,1002.45255 C770.116703,1000.28756 768.408619,998.883472 766.826747,998.244485 C765.249083,997.609703 763.65459,997.76945 762.047476,998.732133 C760.360427,999.736855 759.405415,1001.15355 759.186645,1002.97382 C758.967876,1004.79409 759.375965,1007.02634 760.41512,1009.67477 C761.450068,1012.32741 763.078217,1015.49711 765.286947,1019.1923 L769.897934,1026.89797 C771.622847,1029.78602 773.221547,1032.18643 774.685619,1034.09077 C776.153899,1035.99512 777.542243,1037.45386 778.859067,1038.46699 C780.171684,1039.48012 781.463265,1040.04344 782.729603,1040.15694 C784.000149,1040.27465 785.194967,1039.99299 786.322471,1039.32037 L786.322471,1039.32037 Z M786.431855,1086 L735,1000.0059 L746.33394,993.241896 L751.904147,1000.37164 L752.505763,1000.01011 C751.937804,996.86562 752.106088,993.826232 753.01903,990.883532 C753.931971,987.940832 756.115459,985.439537 759.569492,983.371239 C763.347472,981.117972 767.074967,980.470578 770.76039,981.429058 C774.441607,982.395945 778.303729,985.019151 782.34255,989.311289 C786.38137,993.599223 790.777795,999.720039 795.527616,1007.66953 C800.092325,1015.29953 803.289724,1021.83233 805.128229,1027.27632 C806.962527,1032.71611 807.450551,1037.22265 806.583887,1040.79172 C805.717224,1044.35659 803.479044,1047.21942 799.860934,1049.3802 C797.854145,1050.5783 795.897841,1051.28035 794.008851,1051.48633 C792.111447,1051.69232 790.256114,1051.46531 788.442852,1050.80111 C786.633796,1050.1411 784.875227,1049.11956 783.175556,1047.73649 L782.57394,1048.09803 L800.294266,1077.72681 L786.431855,1086 Z" id="Fill-78" fill="#DFB956"></path>
                <path d="M837.314855,1007.00708 C838.957412,1005.76409 839.865252,1004.29014 840.034153,1002.57263 C840.203053,1000.86353 839.607679,998.700895 838.260698,996.080542 C836.905271,993.468587 834.726455,990.188946 831.711582,986.245819 L825.314477,977.876646 C822.299604,973.933518 819.706981,970.964624 817.532388,968.969965 C815.357794,966.975305 813.419662,965.8289 811.717989,965.530751 C810.016317,965.236801 808.33998,965.707121 806.697423,966.950109 C805.122426,968.138506 804.235699,969.604056 804.033018,971.34256 C803.826115,973.081064 804.417267,975.247894 805.810696,977.834653 C807.195679,980.425611 809.39983,983.688455 812.410481,987.631582 L818.807586,996.000755 C821.82246,999.939684 824.393969,1002.92537 826.534783,1004.94943 C828.671374,1006.96929 830.609507,1008.11989 832.349181,1008.38444 C834.088856,1008.6574 835.744081,1008.19548 837.314855,1007.00708 M845.502305,1017.71945 C841.013775,1021.11247 836.5168,1022.86777 832.007158,1022.99375 C827.497515,1023.11553 822.78097,1021.45681 817.853299,1018.026 C812.925628,1014.59099 807.702381,1009.26629 802.187781,1002.04772 C796.618288,994.757767 792.826472,988.295069 790.816557,982.651232 C788.806641,977.011593 788.464618,972.052239 789.790486,967.760571 C791.116355,963.473102 794.021443,959.634956 798.509973,956.237736 C802.918275,952.903504 807.402582,951.160801 811.946005,951.009627 C816.49365,950.858453 821.248198,952.487775 826.213872,955.893394 C831.179546,959.303213 836.445018,964.648901 842.018733,971.934659 C847.533333,979.153228 851.278701,985.59493 853.250614,991.263963 C855.222527,996.937196 855.526548,1001.92595 854.166899,1006.23861 C852.798805,1010.55967 849.91483,1014.38522 845.502305,1017.71945" id="Fill-80" fill="#DFB956"></path>
                <path d="M890.888016,979.353164 C887.697279,982.345073 884.736543,984.42186 882.001626,985.583523 C879.266709,986.753543 876.653065,987.19648 874.160694,986.920689 C871.668323,986.644898 869.288861,985.779919 867.030672,984.325751 C864.772484,982.87994 862.59375,981.0288 860.490289,978.793225 C860.17247,978.454755 859.787742,978.020176 859.34865,977.476952 C858.905376,976.937907 858.491374,976.398862 858.11501,975.859817 L868.594677,966.027466 C868.971042,966.562333 869.339043,967.017805 869.686135,967.393883 C870.037409,967.765782 870.40541,968.150218 870.785956,968.559725 C871.994505,969.850926 873.249054,970.841265 874.54124,971.539098 C875.837608,972.236932 877.159066,972.525259 878.513979,972.404078 C879.868892,972.282897 881.156896,971.647743 882.373809,970.502795 C883.594903,969.353667 884.339269,968.179468 884.611088,966.967661 C884.878725,965.760033 884.736543,964.489725 884.184541,963.156738 C883.636722,961.827929 882.691628,960.448976 881.353442,959.024058 C879.760165,957.327528 878.062341,956.370619 876.259972,956.149151 C874.453422,955.931861 872.592507,956.086471 870.664683,956.617159 C868.741041,957.152025 866.712853,957.778822 864.584302,958.501728 C862.652296,959.161953 860.645017,959.742785 858.554102,960.235865 C856.467368,960.728945 854.271907,960.908627 851.971901,960.770731 C849.671894,960.632836 847.304978,959.980968 844.875334,958.819304 C842.441509,957.66182 839.95332,955.722929 837.402403,953.010989 C834.918396,950.365907 833.174572,947.699931 832.170933,945.000527 C831.171476,942.30948 830.811838,939.651862 831.092021,937.027673 C831.372203,934.403484 832.170933,931.900476 833.496573,929.501934 C834.822214,927.11175 836.607855,924.867818 838.845135,922.765959 C841.082414,920.664101 843.407512,919.026073 845.812064,917.851874 C848.216617,916.677674 850.608624,916.063414 852.979722,916.004913 C855.35082,915.946412 857.638281,916.410241 859.846288,917.404759 C862.054294,918.395097 864.178664,919.974625 866.215215,922.143341 C866.725399,922.682387 867.264855,923.292469 867.837766,923.969409 C868.410677,924.64635 868.916678,925.289861 869.359952,925.891586 L858.980649,935.627827 L856.781006,933.291965 C855.509729,931.933906 854.30118,931.031318 853.163722,930.56331 C852.026264,930.103659 850.926443,930.015908 849.864258,930.312591 C848.802073,930.609275 847.827707,931.173392 846.949522,931.996585 C846.200975,932.698598 845.653155,933.438218 845.297699,934.215445 C844.946425,934.996852 844.82097,935.811688 844.925516,936.66831 C845.030062,937.529111 845.301881,938.39409 845.732609,939.259069 C846.16752,940.128228 846.798976,941.005743 847.626979,941.883258 C848.965164,943.308176 850.487351,944.110476 852.193538,944.294336 C853.899725,944.482375 855.697912,944.260907 857.596463,943.625753 C859.490832,942.998956 861.468838,942.355445 863.53048,941.691041 C865.462486,940.901277 867.540856,940.190907 869.769771,939.568289 C871.990323,938.94985 874.256876,938.678238 876.556882,938.745096 C878.861071,938.820312 881.227987,939.401143 883.661812,940.495948 C886.095638,941.594932 888.588009,943.496215 891.134744,946.203977 C894.003479,949.258566 896.065122,952.26719 897.319671,955.234027 C898.578402,958.200865 899.126222,961.092487 898.975676,963.917251 C898.816766,966.737836 898.059855,969.433062 896.696578,971.982035 C895.32912,974.543544 893.397114,977.000587 890.888016,979.353164" id="Fill-82" fill="#DFB956"></path>
                <path d="M892.513694,913.204515 L902.605743,901.521404 C899.945339,899.219806 897.626333,897.326826 895.644561,895.86331 C893.666952,894.395624 891.934983,893.349064 890.444491,892.736139 C888.958162,892.119044 887.650858,891.96477 886.52258,892.277487 C885.394302,892.594374 884.345129,893.311538 883.37506,894.428981 C881.922038,896.113483 881.343327,897.881377 881.638928,899.736832 C881.938691,901.592287 883.021172,903.597846 884.882206,905.766018 C886.747403,907.93419 889.291232,910.415079 892.513694,913.204515 M931.124943,936.362259 C927.307117,940.777824 923.268632,943.508887 919.009487,944.538769 C914.750343,945.57282 909.937468,944.868164 904.570862,942.424801 C899.20842,939.985608 893.092405,935.791029 886.22698,929.841065 C879.078445,923.649266 873.965806,918.049545 870.876573,913.046072 C867.791503,908.042598 866.54665,903.310146 867.146178,898.861224 C867.745706,894.412302 869.952301,889.975889 873.770127,885.556154 C877.284025,881.486662 881.006093,878.851499 884.92384,877.646496 C888.841587,876.441493 893.329718,876.920992 898.375742,879.084995 C903.425931,881.257336 909.454515,885.372693 916.457331,891.443575 L920.558267,894.996041 L899.553981,919.308753 C903.409277,922.648572 906.681699,925.237869 909.37541,927.080815 C912.069122,928.927931 914.371475,929.911947 916.286632,930.032865 C918.20179,930.157952 919.883799,929.378244 921.340984,927.69791 C922.186152,926.713894 922.739882,925.688182 922.989685,924.612435 C923.243652,923.545027 923.156221,922.398398 922.744045,921.180886 C922.323543,919.963374 921.524173,918.624945 920.333444,917.161429 C919.142716,915.706252 917.598099,914.088462 915.699595,912.316399 L926.158023,900.216332 C929.59698,903.322655 932.315672,906.378943 934.305771,909.393536 C936.295869,912.408129 937.478271,915.393535 937.857139,918.358093 C938.236008,921.326821 937.861303,924.312227 936.733025,927.32265 C935.600584,930.328904 933.731223,933.343496 931.124943,936.362259" id="Fill-84" fill="#DFB956"></path>
            </g>
            <g id="Oval-Copy-4" transform="translate(860.999819, 867.000000) scale(-1, 1) translate(-860.999819, -867.000000) ">
                <use fill="black" fill-opacity="1" filter="url(#filter-8)" xlink:href="#path-7"></use>
                <circle stroke="#202121" stroke-width="60" stroke-linejoin="square" cx="860.999819" cy="867" r="657.5"></circle>
            </g>
            <g id="Group-10" transform="translate(647.499819, 615.500000)">
                <g id="Oval-Copy-6" style="mix-blend-mode: screen;" transform="translate(216.500000, 251.000000) scale(-1, 1) translate(-216.500000, -251.000000) translate(0.000000, 0.000000)">
                    <g id="Group-9">
                        <mask id="mask-11" fill="white">
                            <use xlink:href="#path-10"></use>
                        </mask>
                        <use id="Mask" stroke="url(#linearGradient-9)" stroke-width="10" fill="#EC9B27" xlink:href="#path-10"></use>
                        <ellipse id="Oval" fill="url(#radialGradient-12)" opacity="0.746029082" mask="url(#mask-11)" cx="160.866873" cy="83.8903743" rx="277.495356" ry="216.772727"></ellipse>
                    </g>
                </g>
            </g>
            <circle id="Oval" stroke="#DFB956" stroke-width="4" opacity="0.2" cx="863.499819" cy="866.5" r="408"></circle>
        </g>
    </g>
</svg>