<svg xmlns="http://www.w3.org/2000/svg" width="56" height="62.003" viewBox="0 0 56 62.003">
  <g id="Group_4" data-name="Group 4" transform="translate(0 0.003)">
    <path id="Fill_1" data-name="Fill 1" d="M0,13H26V0H0Z" transform="translate(30 24)" fill="#998ddd"/>
    <path id="Fill_2" data-name="Fill 2" d="M0,13H26V0H0Z" transform="translate(0 24)" fill="#998ddd"/>
    <path id="Fill_3" data-name="Fill 3" d="M22.214,22H17.781a.039.039,0,0,1,0-.012,3.417,3.417,0,0,1,.018-.523c-1.739-.188-4.367-.475-6.049-.662a13.3,13.3,0,0,1-7.778-3.855,12.977,12.977,0,0,1-3.9-7.672A8.4,8.4,0,0,1,1.993,2.622,8.183,8.183,0,0,1,8.218,0,10.7,10.7,0,0,1,9.394.068a12.835,12.835,0,0,1,6.279,2.583A14.259,14.259,0,0,1,20,7.95a14.256,14.256,0,0,1,4.326-5.3A12.82,12.82,0,0,1,30.6.066,10.726,10.726,0,0,1,31.772,0a8.2,8.2,0,0,1,6.241,2.627,8.384,8.384,0,0,1,1.92,6.648,12.991,12.991,0,0,1-3.907,7.672A13.3,13.3,0,0,1,28.25,20.8c-1.51.167-3.967.437-6.052.662a2.985,2.985,0,0,1,.016.534ZM9.714,5.335h0A4.439,4.439,0,0,0,6.333,6.76,4.526,4.526,0,0,0,5.3,10.352a7.439,7.439,0,0,0,6.312,6.234,5.836,5.836,0,0,0,.633.035A4.441,4.441,0,0,0,15.623,15.2a4.534,4.534,0,0,0,1.038-3.6,7.448,7.448,0,0,0-6.315-6.231,5.035,5.035,0,0,0-.631-.039Zm20.572,0h0a5.791,5.791,0,0,0-.631.035,7.44,7.44,0,0,0-6.319,6.23,4.535,4.535,0,0,0,1.038,3.6,4.437,4.437,0,0,0,3.378,1.42,5.82,5.82,0,0,0,.633-.035A7.439,7.439,0,0,0,34.7,10.349a4.536,4.536,0,0,0-1.038-3.6A4.43,4.43,0,0,0,30.29,5.33Z" transform="translate(8)" fill="#998ddd"/>
    <path id="Fill_4" data-name="Fill 4" d="M0,22H22V0H0Z" transform="translate(30 40)" fill="#998ddd"/>
    <path id="Fill_5" data-name="Fill 5" d="M0,22H22V0H0Z" transform="translate(4 40)" fill="#998ddd"/>
  </g>
</svg>
