<svg id="Group_13" data-name="Group 13" xmlns="http://www.w3.org/2000/svg" xmlns:xlink="http://www.w3.org/1999/xlink" width="56" height="56" viewBox="0 0 56 56">
  <defs>
    <linearGradient id="linear-gradient" y1="-0.2" x2="1" y2="1" gradientUnits="objectBoundingBox">
      <stop offset="0" stop-color="#00f5ff"/>
      <stop offset="1" stop-color="#0057ff"/>
    </linearGradient>
  </defs>
  <path id="Fill_1" data-name="Fill 1" d="M27.667,34h0a20.768,20.768,0,0,0-2.072-2.526A25.413,25.413,0,0,0,8.18,24.181c-.3-.01-.6-.015-.9-.015a27.675,27.675,0,0,0-6.627.807A19.418,19.418,0,0,1,0,19.931,19.961,19.961,0,0,1,12.351,1.525,19.977,19.977,0,0,1,40,19.931a19.636,19.636,0,0,1-2.805,10.16L27.668,34ZM13.836,14.288h0l-2.388,2.38,6.739,6.715L28.607,13l-2.388-2.38-8.035,8.005-4.349-4.333Z" transform="translate(8)" fill="url(#linear-gradient)"/>
  <path id="Fill_2" data-name="Fill 2" d="M55.734,11.641a5.6,5.6,0,0,1-3.173,3.424L21.7,28l-.683-.318c-13.9-6.468-15.759-7.446-16.18-7.764l2.416-2.413c1.894.968,9.4,4.495,14.52,6.88L51.242,12.032a2.265,2.265,0,0,0,1.29-1.393A2.209,2.209,0,0,0,52.3,8.774a2.317,2.317,0,0,0-2.836-.9l-22.443,9.05L16.291,11.565,17.816,8.63,27.167,13.3l3.885-1.571a13.214,13.214,0,0,0-2.359-3.3c-6.386-6.5-18.422-6.957-25.516-1.056L0,5.84a2.8,2.8,0,0,1,.611-.648c8.3-7.292,22.839-6.836,30.5.951a16.465,16.465,0,0,1,3.055,4.33l14-5.65a5.751,5.751,0,0,1,6,1.05,5.48,5.48,0,0,1,1.562,5.77Z" transform="translate(0 28)" fill="url(#linear-gradient)"/>
</svg>
