<?xml version="1.0" encoding="UTF-8"?>
<svg width="1057px" height="286px" viewBox="0 0 1057 286" version="1.1" xmlns="http://www.w3.org/2000/svg" xmlns:xlink="http://www.w3.org/1999/xlink">
    <title>paz-light</title>
    <defs>
        <linearGradient x1="50%" y1="0%" x2="50%" y2="100%" id="linearGradient-1">
            <stop stop-color="#0C2F5B" offset="0%"></stop>
            <stop stop-color="#280345" offset="99.9480988%"></stop>
        </linearGradient>
        <linearGradient x1="-12.2512868%" y1="-12.8279417%" x2="92.4661571%" y2="91.4680588%" id="linearGradient-2">
            <stop stop-color="#00598D" offset="0%"></stop>
            <stop stop-color="#03A7E4" offset="99.9535621%"></stop>
        </linearGradient>
        <linearGradient x1="50%" y1="0%" x2="50%" y2="100%" id="linearGradient-3">
            <stop stop-color="#FFFFFF" offset="0%"></stop>
            <stop stop-color="#E6F5FF" offset="100%"></stop>
        </linearGradient>
        <linearGradient x1="-12.2512868%" y1="-12.8279417%" x2="92.4661571%" y2="91.4680588%" id="linearGradient-4">
            <stop stop-color="#02A8E4" offset="0.0464379371%"></stop>
            <stop stop-color="#00598D" offset="100%"></stop>
        </linearGradient>
        <linearGradient x1="-12.2512868%" y1="-12.4157522%" x2="92.4661571%" y2="91.196003%" id="linearGradient-5">
            <stop stop-color="#A600FF" offset="0%"></stop>
            <stop stop-color="#00EDFF" offset="99.9535621%"></stop>
        </linearGradient>
        <linearGradient x1="-12.2512868%" y1="46.2885211%" x2="92.4661571%" y2="52.4496716%" id="linearGradient-6">
            <stop stop-color="#A600FF" offset="0%"></stop>
            <stop stop-color="#00EDFF" offset="99.9535621%"></stop>
        </linearGradient>
    </defs>
    <g id="Page-1" stroke="none" stroke-width="1" fill="none" fill-rule="evenodd">
        <g id="paz-light" transform="translate(2.000000, 2.000000)">
            <g id="Z-coin-light">
                <circle id="Oval-Copy-18" stroke="url(#linearGradient-2)" stroke-width="4" fill="url(#linearGradient-1)" cx="141" cy="141" r="141"></circle>
                <circle id="Oval-Copy-19" stroke="url(#linearGradient-4)" stroke-width="4" fill="url(#linearGradient-3)" cx="141" cy="141" r="137"></circle>
                <g id="Group-12-Copy-2" transform="translate(78.000000, 78.000000)" fill="url(#linearGradient-5)" fill-rule="nonzero">
                    <g id="Group-6">
                        <path d="M1.42459204,0 L126.415363,1.1945045 L0,126 L0,104.45457 L91.1648187,16.0006683 L17.4238187,16.0006683 L17.424592,52.7736303 L1.42459204,52.7736303 L1.42459204,0 Z M126,22.7161466 L126,45.1365018 L48.0582571,126 L24.8851261,126 L126,22.7161466 Z M126,66.0780408 L126,90.8569822 L92.6600174,126 L70.3741761,126 L126,66.0780408 Z" id="Combined-Shape"></path>
                    </g>
                </g>
            </g>
            <path d="M375.48,226.88 L375.48,160.16 L387.96,160.16 C397.08,160.16 404.44,158.6 410.04,155.48 C415.64,152.36 420.12,148 423.48,142.4 C426.36,137.76 428.24,132.8 429.12,127.52 C430,122.24 430.44,115.76 430.44,108.08 C430.44,97.84 429.64,89.72 428.04,83.72 C426.44,77.72 423.56,72.48 419.4,68 C415.24,63.52 410.6,60.4 405.48,58.64 C400.36,56.88 394.44,56 387.72,56 L387.72,56 L351,56 L351,226.88 L375.48,226.88 Z M387.24,137.12 L375.48,137.12 L375.48,79.04 L388.2,79.04 C393,79.04 396.68,79.76 399.24,81.2 C401.8,82.64 403.72,84.72 405,87.44 C406.28,90.16 407,93.32 407.16,96.92 C407.32,100.52 407.4,104.32 407.4,108.32 C407.4,112.64 407.28,116.56 407.04,120.08 C406.8,123.6 406.04,126.56 404.76,128.96 C403.48,131.52 401.48,133.52 398.76,134.96 C396.04,136.4 392.2,137.12 387.24,137.12 L387.24,137.12 Z M476.097143,226.88 L483.297143,190.16 L516.657143,190.16 L523.857143,226.88 L548.337143,226.88 L510.177143,56 L489.777143,56 L451.617143,226.88 L476.097143,226.88 Z M512.097143,167.12 L487.617143,167.12 L499.617143,105.2 L500.097143,105.2 L512.097143,167.12 Z M647.994286,226.88 L647.994286,203.84 L600.954286,203.84 L647.994286,75.44 L647.994286,56 L577.674286,56 L577.674286,79.04 L621.354286,79.04 L575.274286,205.28 L575.274286,226.88 L647.994286,226.88 Z M750.771429,226.88 L750.771429,203.84 L703.731429,203.84 L750.771429,75.44 L750.771429,56 L680.451429,56 L680.451429,79.04 L724.131429,79.04 L678.051429,205.28 L678.051429,226.88 L750.771429,226.88 Z M813.948571,226.88 L813.948571,56 L789.468571,56 L789.468571,226.88 L813.948571,226.88 Z M908.565714,226.88 L943.605714,56 L917.685714,56 L898.005714,175.28 L897.525714,175.28 L878.085714,56 L852.165714,56 L886.965714,226.88 L908.565714,226.88 Z M1054.06286,226.88 L1054.06286,202.4 L1005.58286,202.4 L1005.58286,152.24 L1047.82286,152.24 L1047.82286,129.2 L1005.58286,129.2 L1005.58286,79.04 L1054.06286,79.04 L1054.06286,56 L981.102857,56 L981.102857,226.88 L1054.06286,226.88 Z" id="PAZZIVE" fill="url(#linearGradient-6)" fill-rule="nonzero"></path>
        </g>
    </g>
</svg>