<?xml version="1.0" encoding="UTF-8"?>
<svg width="292px" height="292px" viewBox="0 0 292 292" version="1.1" xmlns="http://www.w3.org/2000/svg" xmlns:xlink="http://www.w3.org/1999/xlink">
    <title>Fuzion-Light</title>
    <defs>
        <linearGradient x1="79.2013378%" y1="7.69465366%" x2="28.2538431%" y2="96.647557%" id="linearGradient-1">
            <stop stop-color="#FFECA5" offset="0%"></stop>
            <stop stop-color="#E1B244" offset="100%"></stop>
        </linearGradient>
        <linearGradient x1="47.9173289%" y1="0%" x2="45.2639952%" y2="78.903311%" id="linearGradient-2">
            <stop stop-color="#D59436" offset="0%"></stop>
            <stop stop-color="#E6B849" stop-opacity="0" offset="100%"></stop>
        </linearGradient>
        <linearGradient x1="73.5458996%" y1="15.4236265%" x2="40.0717159%" y2="94.4335358%" id="linearGradient-3">
            <stop stop-color="#FCF26F" offset="0%"></stop>
            <stop stop-color="#FAB553" offset="100%"></stop>
        </linearGradient>
        <path d="M0,102.626 L81.6298762,149.844081 L124.552954,124.984098 L145.488,137.094 L76.5000918,177 L0.00018356826,132.75 L0,102.626 Z M0,52.937 L109.236954,116.124098 L81.6248005,132.116756 L0,84.902 L0,52.937 Z M72.2168188,45.0222033 L152.999,91.748 L152.999,123.714 L44.4369537,60.9170975 L72.2168188,45.0222033 Z M76.5000918,-6.78600052e-15 L153,44.25 L152.999,74.025 L72.2588248,27.3220975 L29.2369537,52.1250975 L7.81,39.732 L76.5000918,-6.78600052e-15 Z" id="path-4"></path>
        <radialGradient cx="50%" cy="50%" fx="50%" fy="50%" r="50.1401147%" gradientTransform="translate(0.500000,0.500000),scale(0.780612,1.000000),rotate(85.715620),scale(1.000000,1.286337),translate(-0.500000,-0.500000)" id="radialGradient-6">
            <stop stop-color="#EC9B27" stop-opacity="0" offset="0%"></stop>
            <stop stop-color="#FFFFFF" stop-opacity="0.444096919" offset="100%"></stop>
        </radialGradient>
        <linearGradient x1="74.5571476%" y1="7.12434427%" x2="27.9906739%" y2="92.5475011%" id="linearGradient-7">
            <stop stop-color="#FCE083" offset="0%"></stop>
            <stop stop-color="#D48A21" offset="100%"></stop>
        </linearGradient>
        <circle id="path-8" cx="141" cy="143" r="140"></circle>
        <filter x="-3.2%" y="-3.2%" width="106.4%" height="106.4%" filterUnits="objectBoundingBox" id="filter-9">
            <feOffset dx="0" dy="0" in="SourceAlpha" result="shadowOffsetOuter1"></feOffset>
            <feMorphology radius="11" operator="erode" in="SourceAlpha" result="shadowInner"></feMorphology>
            <feOffset dx="0" dy="0" in="shadowInner" result="shadowInner"></feOffset>
            <feComposite in="shadowOffsetOuter1" in2="shadowInner" operator="out" result="shadowOffsetOuter1"></feComposite>
            <feGaussianBlur stdDeviation="3" in="shadowOffsetOuter1" result="shadowBlurOuter1"></feGaussianBlur>
            <feColorMatrix values="0 0 0 0 0   0 0 0 0 0   0 0 0 0 0  0 0 0 0.5 0" type="matrix" in="shadowBlurOuter1"></feColorMatrix>
        </filter>
        <circle id="path-10" cx="141" cy="141" r="126"></circle>
        <filter x="-2.0%" y="-2.0%" width="104.0%" height="104.0%" filterUnits="objectBoundingBox" id="filter-11">
            <feGaussianBlur stdDeviation="4.5" in="SourceAlpha" result="shadowBlurInner1"></feGaussianBlur>
            <feOffset dx="0" dy="1" in="shadowBlurInner1" result="shadowOffsetInner1"></feOffset>
            <feComposite in="shadowOffsetInner1" in2="SourceAlpha" operator="arithmetic" k2="-1" k3="1" result="shadowInnerInner1"></feComposite>
            <feColorMatrix values="0 0 0 0 0   0 0 0 0 0   0 0 0 0 0  0 0 0 0.204190341 0" type="matrix" in="shadowInnerInner1"></feColorMatrix>
        </filter>
        <linearGradient x1="76.0334306%" y1="9.69300229%" x2="30.4658803%" y2="94.6541847%" id="linearGradient-12">
            <stop stop-color="#010101" offset="0%"></stop>
            <stop stop-color="#010101" offset="100%"></stop>
        </linearGradient>
        <path d="M62,158.626 L143.629876,205.844081 L186.552954,180.984098 L207.488,193.094 L138.500092,233 L62.0001836,188.75 L62,158.626 Z M62,108.937 L171.236954,172.124098 L143.624801,188.116756 L62,140.902 L62,108.937 Z M134.216819,101.022203 L214.999,147.748 L214.999,179.714 L106.436954,116.917098 L134.216819,101.022203 Z M138.500092,56 L215,100.25 L214.999,130.025 L134.258825,83.3220975 L91.2369537,108.125098 L69.81,95.732 L138.500092,56 Z" id="path-13"></path>
        <circle id="path-15" cx="141" cy="141" r="138"></circle>
        <filter x="-3.3%" y="-3.3%" width="106.5%" height="106.5%" filterUnits="objectBoundingBox" id="filter-16">
            <feOffset dx="0" dy="0" in="SourceAlpha" result="shadowOffsetOuter1"></feOffset>
            <feMorphology radius="11" operator="erode" in="SourceAlpha" result="shadowInner"></feMorphology>
            <feOffset dx="0" dy="0" in="shadowInner" result="shadowInner"></feOffset>
            <feComposite in="shadowOffsetOuter1" in2="shadowInner" operator="out" result="shadowOffsetOuter1"></feComposite>
            <feGaussianBlur stdDeviation="3" in="shadowOffsetOuter1" result="shadowBlurOuter1"></feGaussianBlur>
            <feColorMatrix values="0 0 0 0 0   0 0 0 0 0   0 0 0 0 0  0 0 0 0.5 0" type="matrix" in="shadowBlurOuter1"></feColorMatrix>
        </filter>
    </defs>
    <g id="Page-1" stroke="none" stroke-width="1" fill="none" fill-rule="evenodd">
        <g id="Fuzion-Light" transform="translate(5.000000, 3.000000)">
            <g id="Group-4-Copy-3">
                <path d="M141.5,283 C219.648292,283 283,219.648292 283,141.5 C283,63.3517079 219.648292,0 141.5,0 C63.3517079,0 0,63.3517079 0,141.5 C0,219.648292 63.3517079,283 141.5,283 Z" id="Oval-Copy-8" stroke="#FFD56C" fill="#1A1B1B" stroke-dasharray="2,2"></path>
                <circle id="Oval-Copy-9" stroke="url(#linearGradient-1)" stroke-width="4" fill="#C5862B" cx="141.5" cy="141.5" r="139.5"></circle>
                <circle id="Oval-Copy-10" fill="url(#linearGradient-2)" cx="141" cy="141" r="116"></circle>
                <line x1="54.5" y1="227.5" x2="222.5" y2="60.5" id="Line-Copy" stroke="#C5832A" stroke-width="7" stroke-linecap="square"></line>
                <g id="Oval-Copy-11" style="mix-blend-mode: darken;" transform="translate(65.000000, 53.000000)">
                    <mask id="mask-5" fill="white">
                        <use xlink:href="#path-4"></use>
                    </mask>
                    <use id="Mask" stroke="url(#linearGradient-3)" stroke-width="2" fill="#010101" xlink:href="#path-4"></use>
                    <ellipse id="Oval" fill="url(#radialGradient-6)" opacity="0.746029082" mask="url(#mask-5)" cx="57" cy="29.5" rx="98" ry="76.5"></ellipse>
                </g>
                <g id="Oval-Copy-12">
                    <use fill="black" fill-opacity="1" filter="url(#filter-9)" xlink:href="#path-8"></use>
                    <circle stroke="url(#linearGradient-7)" stroke-width="11" stroke-linejoin="square" cx="141" cy="143" r="134.5"></circle>
                </g>
            </g>
            <g id="Group-4-Copy-4" transform="translate(0.000000, 1.000000)">
                <path d="M141.5,283 C219.648292,283 283,219.648292 283,141.5 C283,63.3517079 219.648292,0 141.5,0 C63.3517079,0 0,63.3517079 0,141.5 C0,219.648292 63.3517079,283 141.5,283 Z" id="Oval-Copy-8" stroke="#FFD56C" fill="#1A1B1B" stroke-dasharray="2,2"></path>
                <circle id="Oval-Copy-9" stroke="url(#linearGradient-1)" stroke-width="4" fill="#C5862B" cx="141.5" cy="141.5" r="139.5"></circle>
                <g id="Oval-Copy-10">
                    <use fill="url(#linearGradient-2)" fill-rule="evenodd" xlink:href="#path-10"></use>
                    <use fill="black" fill-opacity="1" filter="url(#filter-11)" xlink:href="#path-10"></use>
                </g>
                <mask id="mask-14" fill="white">
                    <use xlink:href="#path-13"></use>
                </mask>
                <use id="Mask" stroke="url(#linearGradient-12)" stroke-width="3" fill="#010101" transform="translate(138.500000, 144.500000) scale(-1, 1) translate(-138.500000, -144.500000) " xlink:href="#path-13"></use>
                <g id="Oval-Copy-11" style="mix-blend-mode: darken;" mask="url(#mask-14)" fill="url(#radialGradient-6)" opacity="0.746029082">
                    <g transform="translate(24.000000, 6.000000)" id="Oval">
                        <ellipse cx="98" cy="76.5" rx="98" ry="76.5"></ellipse>
                    </g>
                </g>
                <g id="Oval-Copy-12" mask="url(#mask-14)">
                    <use fill="black" fill-opacity="1" filter="url(#filter-16)" xlink:href="#path-15"></use>
                    <circle stroke="url(#linearGradient-7)" stroke-width="11" stroke-linejoin="square" cx="141" cy="141" r="132.5"></circle>
                </g>
            </g>
        </g>
    </g>
</svg>