<svg xmlns="http://www.w3.org/2000/svg" xmlns:xlink="http://www.w3.org/1999/xlink" width="68" height="62" viewBox="0 0 68 62">
  <defs>
    <linearGradient id="linear-gradient" y1="-0.2" x2="1" y2="1" gradientUnits="objectBoundingBox">
      <stop offset="0" stop-color="#00f5ff"/>
      <stop offset="1" stop-color="#0057ff"/>
    </linearGradient>
  </defs>
  <path id="Fill_1" data-name="Fill 1" d="M48.674,62a19.368,19.368,0,0,1-9.385-2.435,19.588,19.588,0,0,1-6.862-6.38,42.381,42.381,0,0,1-11.6,1.494C10.479,54.679,0,51.406,0,45.152V9.526C0,3.272,10.471,0,20.815,0h.013C31.18,0,41.659,3.272,41.659,9.526v15.36a20.852,20.852,0,0,1,7.015-1.281,19.2,19.2,0,1,1,0,38.394ZM54,46a3,3,0,1,0,3,3A3,3,0,0,0,54,46Zm1.127-12a1.868,1.868,0,0,0-1.332.539L40.541,47.765a1.906,1.906,0,0,0,0,2.66A2.1,2.1,0,0,0,41.908,51a1.983,1.983,0,0,0,1.368-.576L56.46,37.2A1.869,1.869,0,0,0,55.127,34ZM4,42v2.847c0,1.058,1.733,2.337,4.522,3.339A36.541,36.541,0,0,0,20.462,50,38,38,0,0,0,30,48.914a19.39,19.39,0,0,1-1.059-4.2,49.4,49.4,0,0,1-8.478.746C13.984,45.458,7.83,44.165,4,42Zm0-9v2.847c0,1.058,1.723,2.337,4.5,3.339A36.163,36.163,0,0,0,20.373,41a38.62,38.62,0,0,0,8.433-.814A20.3,20.3,0,0,1,30,35.442a43.792,43.792,0,0,1-9.626,1.016C13.93,36.458,7.809,35.165,4,33Zm38,1a3,3,0,1,0,3,3A3,3,0,0,0,42,34ZM4,25v2.847c0,1.058,1.737,2.338,4.532,3.339A36.706,36.706,0,0,0,20.5,33a34.8,34.8,0,0,0,12.818-2.169A20.605,20.605,0,0,1,37,27.577V25c-3.781,2.2-9.8,3.459-16.5,3.459C14.008,28.459,7.84,27.166,4,25Zm0-9v2.847c0,1.058,1.737,2.338,4.532,3.339A36.706,36.706,0,0,0,20.5,24a36.7,36.7,0,0,0,11.967-1.814c2.8-1,4.532-2.281,4.532-3.339V16c-3.781,2.2-9.8,3.459-16.5,3.459C14.008,19.459,7.84,18.166,4,16ZM20.5,4A34.586,34.586,0,0,0,8.532,5.936C5.736,7.005,4,8.371,4,9.5s1.737,2.494,4.533,3.564A34.589,34.589,0,0,0,20.5,15C30.415,15,37,11.69,37,9.5c0-1.129-1.737-2.5-4.532-3.564A34.583,34.583,0,0,0,20.5,4Z" fill="url(#linear-gradient)"/>
</svg>
