<svg xmlns="http://www.w3.org/2000/svg" width="24" height="24" viewBox="0 0 24 24">
  <path id="telegram" d="M11.944,0A12.028,12.028,0,1,0,12,0h-.056Zm4.962,7.224a.785.785,0,0,1,.465.14.506.506,0,0,1,.171.325,2.1,2.1,0,0,1,.02.472c-.18,1.9-.962,6.5-1.36,8.627-.168.9-.5,1.2-.82,1.23-.7.065-1.225-.46-1.9-.9-1.056-.693-1.653-1.124-2.678-1.8-1.185-.78-.417-1.21.258-1.91.177-.184,3.247-2.977,3.307-3.23a.247.247,0,0,0-.056-.212.278.278,0,0,0-.249-.024Q13.905,9.976,9,13.285a2.261,2.261,0,0,1-1.3.48,8.5,8.5,0,0,1-1.865-.44c-.752-.245-1.349-.374-1.3-.789q.04-.324.893-.663,5.247-2.286,7-3.014c3.332-1.386,4.025-1.627,4.476-1.635Z" transform="translate(0 0)" fill="#fff"/>
</svg>
