<svg id="_145812" data-name="145812" xmlns="http://www.w3.org/2000/svg" width="36" height="36" viewBox="0 0 36 36">
  <circle id="Oval" cx="18" cy="18" r="18" fill="#fff"/>
  <path id="Path" d="M20.971,2.018a8.584,8.584,0,0,1-2.471.677A4.314,4.314,0,0,0,20.392.314,8.613,8.613,0,0,1,17.66,1.358a4.306,4.306,0,0,0-7.332,3.925A12.213,12.213,0,0,1,1.46.787,4.307,4.307,0,0,0,2.791,6.532,4.272,4.272,0,0,1,.842,5.993c0,.018,0,.037,0,.055a4.305,4.305,0,0,0,3.452,4.218,4.319,4.319,0,0,1-1.943.074A4.307,4.307,0,0,0,6.37,13.328,8.633,8.633,0,0,1,1.026,15.17,8.664,8.664,0,0,1,0,15.11a12.17,12.17,0,0,0,6.595,1.933A12.158,12.158,0,0,0,18.837,4.8c0-.186,0-.372-.013-.556a8.725,8.725,0,0,0,2.147-2.227Z" transform="translate(8.054 10.918)" fill="#001034"/>
</svg>
