<svg xmlns="http://www.w3.org/2000/svg" width="53" height="48" viewBox="0 0 53 48">
  <g id="Group_1" data-name="Group 1" transform="translate(-165 -770)">
    <path id="Fill_1" data-name="Fill 1" d="M26.552,48a4.436,4.436,0,0,1-4.441-4.092l-3.556-5.7L15,43.9a4.4,4.4,0,1,1-.561-2.433l3.08-4.926L6.152,18.355a.828.828,0,0,1-.05-.873A.961.961,0,0,1,6.92,17a.861.861,0,0,1,.74.439L18.553,34.881l10.76-17.211a.86.86,0,0,1,.741-.436.962.962,0,0,1,.82.478.83.83,0,0,1-.05.871L19.591,36.547l3.077,4.918a4.469,4.469,0,0,1,3.884-2.235,4.385,4.385,0,1,1,0,8.769ZM26.5,41A2.5,2.5,0,0,0,24,43.5,2.5,2.5,0,1,0,26.5,41Zm-16,0A2.5,2.5,0,1,0,13,43.5,2.5,2.5,0,0,0,10.5,41Zm2.433-9h0L2.646,32A2.659,2.659,0,0,1,0,29.333V2.663A2.657,2.657,0,0,1,2.646,0H15.015A.889.889,0,0,1,15.9.885,2.661,2.661,0,0,0,18.55,3.547,2.626,2.626,0,0,0,21.2.885.888.888,0,0,1,22.08,0L50.346,0A2.662,2.662,0,0,1,53,2.665l0,26.67A2.663,2.663,0,0,1,50.343,32H24.179l8.1-13.242a2.581,2.581,0,0,0,.111-2.7,2.867,2.867,0,0,0-2.418-1.447,2.573,2.573,0,0,0-2.209,1.352L19.9,28.822a2.585,2.585,0,0,0-2.69,0L9.215,15.727A2.57,2.57,0,0,0,7,14.38a2.868,2.868,0,0,0-2.423,1.44,2.584,2.584,0,0,0,.121,2.7L12.933,32ZM50,28a1,1,0,1,0,1,1A1,1,0,0,0,50,28ZM3,28a1,1,0,1,0,1,1A1,1,0,0,0,3,28Zm16-5c-.482,0-1,.249-1,.8v2.4c0,.551.518.8,1,.8s1-.251,1-.8V23.8c0-.547-.518-.8-1-.8Zm0-6c-.482,0-1,.25-1,.8v2.4c0,.55.518.8,1,.8s1-.251,1-.8V17.8C20,17.25,19.482,17,19,17ZM36.878,9a.912.912,0,0,0-.817.559.812.812,0,0,0,.214.912L46.5,20.714a.894.894,0,0,0,.635.286.881.881,0,0,0,.8-.547.836.836,0,0,0-.22-.939L37.488,9.271A.854.854,0,0,0,36.878,9Zm1.62,7A2.5,2.5,0,1,0,41,18.5,2.5,2.5,0,0,0,38.5,16ZM19,11c-.482,0-1,.252-1,.8v2.4c0,.55.518.8,1,.8s1-.251,1-.8V11.805c0-.552-.518-.8-1-.8ZM45.5,8A2.5,2.5,0,1,0,48,10.5,2.5,2.5,0,0,0,45.5,8ZM19,5c-.482,0-1,.252-1,.8V8.2c0,.55.518.8,1,.8s1-.25,1-.8V5.805C20,5.252,19.482,5,19,5ZM50,2a1,1,0,1,0,1,1A1,1,0,0,0,50,2ZM3,2A1,1,0,1,0,4,3,1,1,0,0,0,3,2ZM39,20a.987.987,0,0,1-1-1,1,1,0,1,1,1,1Zm7-8a1,1,0,1,1,1-1A1,1,0,0,1,46,12Z" transform="translate(165 770)" fill="#998ddd"/>
  </g>
</svg>
