<svg id="Group_8" data-name="Group 8" xmlns="http://www.w3.org/2000/svg" width="30" height="30" viewBox="0 0 30 30">
  <circle id="Oval" cx="15" cy="15" r="15" fill="#fff"/>
  <g id="exchange" transform="translate(21.143 9.857) rotate(90)">
    <path id="Shape" d="M2.113,11.758.626,10.3a2.064,2.064,0,0,1,0-2.962L2.113,5.887a.853.853,0,0,1,1.2.005A.829.829,0,0,1,3.3,7.075l-.974.953H9.439a.836.836,0,1,1,0,1.672H2.417l.888.869a.829.829,0,0,1,.005,1.183.854.854,0,0,1-1.2.005Zm4.862-5.65a.83.83,0,0,1,.006-1.183l.974-.953H.847a.836.836,0,1,1,0-1.672H7.87L6.981,1.43A.83.83,0,0,1,6.975.248a.855.855,0,0,1,1.2-.005L9.659,1.7a2.063,2.063,0,0,1,0,2.963L8.173,6.114a.854.854,0,0,1-1.2-.006Z" fill="#4677ed"/>
  </g>
</svg>
