<svg xmlns="http://www.w3.org/2000/svg" width="39.837" height="41.78" viewBox="0 0 39.837 41.78">
  <g id="Group_27" data-name="Group 27" transform="translate(-0.582 -118.61)">
    <g id="Group_3" data-name="Group 3">
      <g id="Group_26" data-name="Group 26">
        <g id="Group_25" data-name="Group 25">
          <g id="Group_24" data-name="Group 24">
            <g id="Group_23" data-name="Group 23">
              <g id="Group_22" data-name="Group 22">
                <g id="Group_21" data-name="Group 21">
                  <g id="Group_20" data-name="Group 20">
                    <g id="Group_19" data-name="Group 19">
                      <g id="Group_18" data-name="Group 18">
                        <g id="Group_17" data-name="Group 17">
                          <g id="Group_16" data-name="Group 16">
                            <g id="Group_15" data-name="Group 15">
                              <g id="Group_14" data-name="Group 14">
                                <g id="Group_13" data-name="Group 13">
                                  <g id="Group_12" data-name="Group 12">
                                    <g id="Group_11" data-name="Group 11">
                                      <g id="Group_10" data-name="Group 10">
                                        <g id="Group_9" data-name="Group 9">
                                          <ellipse id="Oval_Copy_20" data-name="Oval Copy 20" cx="19.918" cy="20.89" rx="19.918" ry="20.89" transform="translate(0.582 118.61)" fill="#f3ba2f"/>
                                        </g>
                                      </g>
                                    </g>
                                  </g>
                                </g>
                              </g>
                            </g>
                          </g>
                        </g>
                      </g>
                    </g>
                  </g>
                </g>
              </g>
            </g>
          </g>
        </g>
      </g>
    </g>
    <g id="Group_28" data-name="Group 28" transform="translate(7 126)">
      <path id="Shape" d="M5.206,18.706l0,0,3.056-3.047L13.5,20.9l5.246-5.246L21.8,18.7h0L13.5,27ZM20.9,13.5l3.051-3.051L27,13.5l-3.051,3.051ZM0,13.5l3.051-3.052L6.1,13.5,3.051,16.55ZM13.5,6.1,8.257,11.345,5.206,8.294,13.5,0l8.3,8.3-3.051,3.051Z" fill="#fff"/>
      <path id="Path" d="M6,3H6L3,0,.784,2.216h0L.529,2.47,0,3,0,3,0,3,3,6,6,3V3H6" transform="translate(11 11)" fill="#fff"/>
    </g>
  </g>
</svg>
