<svg id="Group_9" data-name="Group 9" xmlns="http://www.w3.org/2000/svg" width="11.114" height="10" viewBox="0 0 11.114 10">
  <path id="Path" d="M1.2,10H9.915a1.2,1.2,0,0,0,1.038-1.791L6.6.6A1.2,1.2,0,0,0,4.518.6L.16,8.209A1.2,1.2,0,0,0,1.2,10Z" fill="#ffc583"/>
  <path id="Path-2" data-name="Path" d="M.512,4.27A.512.512,0,0,1,0,3.758V.512a.512.512,0,0,1,1.024,0V3.758A.512.512,0,0,1,.512,4.27Z" transform="translate(5.045 2.569)" fill="#231d4f"/>
  <circle id="Oval" cx="0.515" cy="0.515" r="0.515" transform="translate(5.042 7.469)" fill="#231d4f"/>
</svg>
