<svg xmlns="http://www.w3.org/2000/svg" xmlns:xlink="http://www.w3.org/1999/xlink" width="155.5" height="44" viewBox="0 0 155.5 44">
  <defs>
    <linearGradient id="linear-gradient" x1="0.5" x2="0.5" y2="1" gradientUnits="objectBoundingBox">
      <stop offset="0" stop-color="#0c2f5b"/>
      <stop offset="0.999" stop-color="#280345"/>
    </linearGradient>
    <linearGradient id="linear-gradient-2" x1="0.5" x2="0.5" y2="1" gradientUnits="objectBoundingBox">
      <stop offset="0" stop-color="#fff"/>
      <stop offset="1" stop-color="#e6f5ff"/>
    </linearGradient>
    <linearGradient id="linear-gradient-3" x1="-0.123" y1="-0.128" x2="0.925" y2="0.915" gradientUnits="objectBoundingBox">
      <stop offset="0" stop-color="#a600ff"/>
      <stop offset="1" stop-color="#00edff"/>
    </linearGradient>
  </defs>
  <g id="Group_1" data-name="Group 1" transform="translate(-130.343 -12.5)">
    <g id="Z_coin_light" data-name="Z coin light" transform="translate(126.843 16)">
      <ellipse id="Oval_Copy_18" data-name="Oval Copy 18" cx="20.5" cy="21.5" rx="20.5" ry="21.5" transform="translate(4 -3)" stroke="#707070" stroke-miterlimit="10" stroke-width="1" fill="url(#linear-gradient)"/>
      <ellipse id="Oval_Copy_19" data-name="Oval Copy 19" cx="19.918" cy="20.89" rx="19.918" ry="20.89" transform="translate(4.582 -2.39)" stroke="#707070" stroke-miterlimit="10" stroke-width="1" fill="url(#linear-gradient-2)"/>
      <g id="Group_12_Copy_2" data-name="Group 12 Copy 2" transform="translate(11.34 11.894)">
        <g id="Group_6" data-name="Group 6">
          <path id="Path" d="M18.38.182,0,19.213V15.927L13.254,2.44H2.533V8.047H.207V0Z" transform="translate(4 -3)" fill="url(#linear-gradient-3)"/>
          <path id="Path-2" data-name="Path" d="M14.7,0V3.419L3.369,15.749H0Z" transform="translate(7.618 0.464)" fill="url(#linear-gradient-3)"/>
          <path id="Path-3" data-name="Path" d="M8.087,0V3.778L3.24,9.137H0Z" transform="translate(14.232 7.076)" fill="url(#linear-gradient-3)"/>
        </g>
      </g>
    </g>
    <path id="Path-4" data-name="Path" d="M3.586,26V15.848H5.415a6.422,6.422,0,0,0,3.235-.712,5.332,5.332,0,0,0,1.969-1.99,6.331,6.331,0,0,0,.826-2.264,19.082,19.082,0,0,0,.193-2.958,15.513,15.513,0,0,0-.352-3.706,5.634,5.634,0,0,0-1.266-2.392A4.985,4.985,0,0,0,7.981.4,7.724,7.724,0,0,0,5.38,0H0V26Z" transform="translate(182.843 22)" fill="#fff"/>
    <path id="Path-5" data-name="Path" d="M3.586,26l1.055-5.587H9.528L10.583,26H14.17L8.579,0H5.591L0,26Z" transform="translate(197.583 22)" fill="#fff"/>
    <path id="Path-6" data-name="Path" d="M3.586,9.421H0L1.758,0h.07Z" transform="translate(198.857 32.486)" fill="#fff"/>
    <path id="Path-7" data-name="Path" d="M10.654,26V22.494H3.762L10.654,2.958V0H.352V3.506h6.4L0,22.713V26Z" transform="translate(215.699 22)" fill="#fff"/>
    <path id="Path-8" data-name="Path" d="M10.654,26V22.494H3.762L10.654,2.958V0H.352V3.506h6.4L0,22.713V26Z" transform="translate(230.756 22)" fill="#fff"/>
    <path id="Path-9" data-name="Path" d="M3.586,26V0H0V26Z" transform="translate(247.079 22)" fill="#fff"/>
    <path id="Path-10" data-name="Path" d="M8.263,26,13.4,0H9.6L6.716,18.149h-.07L3.8,0H0L5.1,26Z" transform="translate(256.264 22)" fill="#fff"/>
    <path id="Path-11" data-name="Path" d="M10.689,26V22.275h-7.1V14.643H9.775V11.138H3.586V3.506h7.1V0H0V26Z" transform="translate(275.154 22)" fill="#fff"/>
  </g>
</svg>
