<svg id="Group_13_Copy" data-name="Group 13 Copy" xmlns="http://www.w3.org/2000/svg" width="38" height="56" viewBox="0 0 38 56">
  <path id="Fill_1" data-name="Fill 1" d="M10.813,3.221A21.757,21.757,0,0,1,3.45,1.977c-.375-.134-.748-.286-1.111-.448A3.777,3.777,0,0,1,0,3.813C1.178,6.592,4.856,8,10.95,8,18.385,8,22,5.9,22,1.576V0a14.045,14.045,0,0,1-1.346.857,20.466,20.466,0,0,1-9.841,2.364Z" transform="translate(16 48)" fill="#998ddd"/>
  <path id="Fill_2" data-name="Fill 2" d="M9.24,2.976c-.214,0-.425.007-.638.007A23.753,23.753,0,0,1,0,1.445V7.377c.447.189.906.363,1.372.516,5.4,1.779,12.147,1.387,16.8-.979A13.122,13.122,0,0,0,20,5.789V0a14.609,14.609,0,0,1-1.375.8A22.388,22.388,0,0,1,9.24,2.976Z" transform="translate(18 41)" fill="#998ddd"/>
  <path id="Fill_3" data-name="Fill 3" d="M8.57,2.989A23.571,23.571,0,0,1,0,1.456v6.2l.1-.225c5.438,2.271,13.038,2.061,18.07-.5A13.12,13.12,0,0,0,20,5.8V0a14.5,14.5,0,0,1-1.375.8A22.638,22.638,0,0,1,8.57,2.989Z" transform="translate(18 34)" fill="#998ddd"/>
  <path id="Fill_4" data-name="Fill 4" d="M16.594,4.2A10.188,10.188,0,0,0,18,3.263V2.341C18,1.274,16.53,0,9.52,0S0,1.21,0,2.341v.874c.163.132.344.273.552.418C4.713,6.551,11.911,6.806,16.594,4.2Z" transform="translate(0 29)" fill="#998ddd"/>
  <path id="Fill_5" data-name="Fill 5" d="M16.594,5.339A10.285,10.285,0,0,0,18,4.47V.038q-.446.283-.936.537A17.892,17.892,0,0,1,9.044,2.336,17.062,17.062,0,0,1,0,0V4.428c.163.122.347.252.552.386,4.159,2.694,11.358,2.932,16.041.525Z" transform="translate(0 39)" fill="#998ddd"/>
  <path id="Fill_6" data-name="Fill 6" d="M16.594,5.34A10.51,10.51,0,0,0,18,4.466V.038q-.438.279-.936.534A17.911,17.911,0,0,1,9.038,2.333,17.075,17.075,0,0,1,0,0V4.419c.178.134.359.266.547.386,4.164,2.7,11.361,2.943,16.046.534Z" transform="translate(0 34)" fill="#998ddd"/>
  <path id="Fill_7" data-name="Fill 7" d="M18,4.2V.038q-.438.284-.936.543A17.664,17.664,0,0,1,9.038,2.372,16.856,16.856,0,0,1,0,0V4.2C0,5.772,4.048,7,9.214,7,14.222,7,18,5.8,18,4.2Z" transform="translate(0 45)" fill="#998ddd"/>
  <path id="Fill_8" data-name="Fill 8" d="M11.617,0C7.6,0,1.1.663,0,4.838q.272.205.559.4c5.129,3.406,14,3.709,19.781.67A12.46,12.46,0,0,0,22,4.862C21.336,1.6,17.922,0,11.617,0Z" transform="translate(16)" fill="#998ddd"/>
  <path id="Fill_9" data-name="Fill 9" d="M11.548,3.007A21.688,21.688,0,0,1,.2.126C.133.083.069.043,0,0,0,.069,0,.138,0,.209v5.54c.237.178.486.352.742.513C6.037,9.635,15.2,9.932,21.16,6.926A13,13,0,0,0,23,5.8V.209c0-.055,0-.107,0-.162a14.82,14.82,0,0,1-1.376.791A22.817,22.817,0,0,1,11.548,3.007Z" transform="translate(15 6)" fill="#998ddd"/>
  <path id="Fill_10" data-name="Fill 10" d="M11.55,3.009A21.71,21.71,0,0,1,.2.131C.133.088.067.045,0,0V5.75c.244.181.493.354.742.513,5.3,3.37,14.458,3.67,20.418.663A13,13,0,0,0,23,5.805V.047a14.609,14.609,0,0,1-1.381.793A22.8,22.8,0,0,1,11.551,3.009Z" transform="translate(15 20)" fill="#998ddd"/>
  <path id="Fill_11" data-name="Fill 11" d="M11.548,3.009A21.7,21.7,0,0,1,.2.131C.133.088.067.045,0,0V5.751c.244.18.493.354.742.513,5.3,3.37,14.458,3.669,20.418.662A12.864,12.864,0,0,0,23,5.806V.05a14.61,14.61,0,0,1-1.381.793A22.834,22.834,0,0,1,11.548,3.009Z" transform="translate(15 13)" fill="#998ddd"/>
  <path id="Fill_12" data-name="Fill 12" d="M11.55,3.01A21.71,21.71,0,0,1,.2.131C.133.088.067.045,0,0V1.713c1.7.444,2.91,1.219,2.91,2.549V7.387C8.394,9.7,16.026,9.511,21.16,6.927A13,13,0,0,0,23,5.805V.047a14.609,14.609,0,0,1-1.381.793A22.8,22.8,0,0,1,11.551,3.01Z" transform="translate(15 27)" fill="#998ddd"/>
</svg>
